<?xml version="1.0" standalone="no"?>
<!DOCTYPE svg PUBLIC "-//W3C//DTD SVG 20010904//EN"
 "http://www.w3.org/TR/2001/REC-SVG-20010904/DTD/svg10.dtd">
<svg version="1.0" xmlns="http://www.w3.org/2000/svg"
 width="1406.000000pt" height="1600.000000pt" viewBox="0 0 1406.000000 1600.000000"
 preserveAspectRatio="xMidYMid meet">

<g transform="translate(0.000000,1600.000000) scale(0.100000,-0.100000)"
fill="#000000" stroke="none">
<path d="M0 8000 l0 -8000 7030 0 7030 0 0 8000 0 8000 -7030 0 -7030 0 0
-8000z m6680 7665 c7 -9 19 -14 26 -11 7 3 15 -6 18 -20 4 -14 11 -22 15 -19
5 3 17 -18 27 -45 10 -28 23 -50 30 -50 6 0 15 -11 18 -25 4 -14 12 -25 19
-25 6 0 25 -21 41 -48 33 -52 47 -69 90 -110 34 -32 34 -31 88 -102 65 -83
108 -147 108 -159 0 -6 5 -11 10 -11 24 0 -36 -77 -122 -157 -20 -19 -44 -51
-52 -71 -9 -21 -20 -44 -26 -52 -5 -8 -19 -39 -32 -67 -13 -29 -26 -53 -30
-53 -5 0 -8 -17 -8 -37 0 -21 -7 -47 -15 -57 -8 -11 -15 -41 -15 -66 0 -25 -7
-55 -15 -66 -10 -13 -14 -45 -15 -105 0 -68 -3 -88 -15 -93 -12 -4 -15 -24
-15 -91 0 -60 -5 -93 -15 -109 -23 -34 -1 -48 72 -44 50 3 58 6 61 24 2 16 -4
23 -22 28 -17 4 -26 13 -26 26 0 11 4 20 9 20 16 0 25 42 22 95 -2 39 2 56 18
77 12 14 21 38 21 53 0 15 9 38 20 52 11 14 20 36 20 48 0 25 32 99 55 129 8
11 15 27 15 37 0 9 7 19 15 23 8 3 15 16 15 28 1 13 14 34 30 48 17 13 30 33
30 43 0 24 71 97 96 97 10 0 30 9 44 20 14 11 31 20 37 20 7 0 44 -24 83 -54
84 -66 253 -149 375 -186 132 -39 142 -48 150 -126 6 -53 4 -68 -9 -83 -9 -10
-16 -34 -16 -53 0 -20 -7 -41 -15 -48 -8 -7 -15 -20 -15 -29 0 -9 -11 -29 -25
-46 l-25 -30 -26 29 c-23 26 -25 35 -20 80 5 38 3 56 -8 71 -9 11 -16 27 -16
36 0 23 -85 116 -113 125 -12 3 -29 13 -38 20 -14 12 -18 11 -34 -6 -13 -15
-31 -20 -66 -20 -39 0 -55 -6 -81 -29 -18 -15 -47 -35 -64 -44 -32 -16 -64
-56 -64 -79 -1 -7 -21 -33 -45 -58 -25 -25 -45 -52 -45 -61 0 -8 -12 -26 -26
-40 -33 -31 -74 -113 -74 -149 0 -16 -4 -32 -10 -35 -16 -10 -11 -45 8 -51 9
-3 29 -12 44 -20 14 -8 46 -14 70 -14 40 0 49 -5 97 -54 51 -52 54 -57 56
-112 2 -47 -3 -68 -26 -114 -24 -47 -37 -61 -81 -83 l-53 -27 -561 0 c-487 0
-563 2 -574 15 -7 8 -20 15 -28 15 -9 0 -36 19 -59 42 l-43 42 0 78 c0 93 26
154 72 170 15 5 28 14 28 19 0 5 31 9 68 9 44 0 75 5 88 15 10 8 39 15 64 15
53 0 75 12 67 34 -5 11 -19 16 -49 16 -24 0 -48 4 -53 8 -15 10 -55 81 -55 96
0 8 -6 19 -14 25 -8 7 -18 26 -21 42 -4 16 -11 29 -16 29 -5 0 -12 12 -15 28
-4 15 -26 46 -48 70 -23 24 -43 53 -46 65 -3 12 -19 28 -35 36 -17 7 -41 24
-55 36 -14 12 -55 37 -92 54 -37 18 -70 37 -73 42 -9 14 -41 11 -55 -6 -7 -8
-21 -15 -31 -15 -49 0 -139 -145 -139 -222 0 -26 -5 -50 -11 -53 -5 -4 -14
-18 -19 -31 -15 -38 -35 -28 -62 29 -30 61 -43 154 -25 177 7 9 43 31 80 50
37 19 76 43 86 52 11 9 21 15 23 13 2 -2 35 19 74 48 38 29 87 64 109 79 22
15 73 59 113 98 39 38 78 70 86 70 7 0 25 -9 39 -20 14 -11 33 -20 42 -20 21
0 65 -45 65 -67 0 -8 18 -31 39 -49 21 -19 52 -60 67 -92 16 -31 44 -83 61
-115 18 -33 33 -70 33 -84 0 -14 9 -36 20 -50 14 -18 20 -41 20 -73 0 -30 6
-52 15 -60 10 -9 15 -32 15 -77 0 -35 4 -73 10 -83 8 -14 4 -21 -16 -35 -20
-13 -23 -19 -13 -31 6 -8 19 -14 28 -14 9 0 22 -5 29 -12 8 -8 15 -8 27 2 12
10 18 10 30 0 12 -10 21 -10 40 -2 34 15 32 47 -2 64 -26 13 -28 17 -28 80 -1
49 -5 72 -18 86 -13 14 -17 37 -17 98 -1 54 -5 85 -15 98 -10 13 -15 43 -15
87 0 47 -4 70 -15 79 -8 7 -15 20 -15 29 0 10 -7 26 -15 37 -8 10 -15 33 -15
51 0 17 -7 38 -15 47 -8 8 -15 19 -15 24 0 31 -59 118 -130 191 -83 87 -102
121 -79 144 8 8 34 42 59 76 25 35 61 80 80 100 19 21 46 53 60 72 25 35 27
37 60 78 11 13 20 30 20 38 0 7 4 13 8 13 4 0 16 15 27 33 10 17 21 34 24 37
3 3 12 14 19 25 7 11 22 34 33 52 11 17 37 38 59 47 22 9 40 20 40 26 0 15 26
12 40 -5z m3289 -1741 c2 -2 -4 -15 -13 -28 -9 -14 -16 -32 -16 -41 0 -8 -22
-40 -50 -70 -38 -42 -50 -63 -50 -88 0 -17 -7 -41 -15 -51 -19 -26 -19 -80 0
-96 8 -7 15 -21 15 -31 0 -10 11 -29 24 -43 21 -23 31 -26 93 -26 68 0 72 1
112 39 22 21 41 45 41 53 0 8 7 23 15 34 8 10 15 30 15 44 0 14 9 40 20 58 16
26 20 50 20 115 0 115 5 120 103 107 68 -8 84 -14 120 -45 47 -41 77 -51 104
-37 25 14 117 15 332 6 166 -7 177 -9 230 -36 31 -16 64 -39 74 -50 17 -21 17
-21 -31 -38 -29 -10 -94 -19 -163 -23 -139 -6 -167 -17 -244 -96 -33 -34 -64
-61 -71 -61 -6 0 -19 -9 -29 -20 -11 -12 -31 -20 -50 -20 -21 0 -40 -9 -55
-25 -13 -14 -53 -39 -89 -56 -36 -17 -81 -44 -99 -60 -18 -16 -39 -29 -46 -29
-7 0 -23 -12 -37 -26 -13 -14 -37 -32 -54 -39 -16 -7 -47 -30 -67 -50 -21 -20
-52 -42 -70 -50 -18 -7 -58 -39 -88 -69 -30 -31 -61 -56 -68 -56 -8 0 -53 -38
-101 -84 -47 -46 -95 -87 -107 -90 -12 -4 -93 -78 -180 -165 -87 -87 -170
-162 -184 -166 -14 -4 -83 -66 -154 -136 -71 -71 -134 -129 -140 -129 -27 0
-36 26 -36 101 0 74 -1 78 -31 103 -29 25 -36 26 -148 26 -97 0 -123 3 -156
20 -23 11 -59 20 -86 20 -33 0 -51 5 -64 20 -10 11 -24 20 -32 20 -8 0 -28 14
-45 30 -16 17 -37 30 -46 30 -24 0 -92 71 -92 96 0 12 -13 33 -30 47 -22 19
-30 34 -30 58 0 18 -7 40 -16 50 -9 10 -18 36 -21 58 -3 24 -11 41 -19 41 -7
0 -54 -20 -105 -45 -51 -25 -102 -45 -113 -45 -12 0 -30 -7 -40 -15 -11 -8
-38 -15 -60 -15 -23 -1 -52 -7 -66 -15 -36 -21 -267 -21 -306 0 -16 8 -37 15
-47 15 -9 0 -54 18 -100 41 -100 50 -216 157 -253 235 -13 28 -24 56 -24 62 0
7 -4 12 -8 12 -12 0 -32 46 -32 73 0 12 -7 31 -15 41 -21 28 -20 122 1 130 22
8 117 7 129 -2 12 -8 115 -213 115 -228 0 -20 140 -152 184 -174 25 -12 66
-23 90 -24 25 -1 54 -10 64 -19 24 -22 41 -21 65 1 15 13 38 17 102 18 59 1
89 6 106 18 13 9 36 16 51 16 14 0 33 7 42 15 8 8 21 15 28 15 7 0 33 16 57
35 24 19 49 35 56 35 6 0 22 11 34 24 13 14 37 30 54 37 18 7 46 25 63 42 27
24 35 27 53 18 19 -10 21 -21 21 -91 0 -56 4 -83 15 -94 9 -8 15 -33 15 -59 0
-62 75 -205 136 -260 56 -50 124 -87 162 -87 16 0 35 -7 42 -15 18 -22 267
-22 296 0 10 8 38 15 61 15 29 0 63 11 107 35 36 19 76 35 90 35 13 0 43 16
66 35 23 19 47 35 54 35 7 0 25 14 41 30 16 17 37 30 47 30 10 0 23 13 32 33
7 17 41 59 75 92 l61 59 0 84 0 84 -41 39 -41 39 -130 0 -130 0 -81 -41 c-45
-23 -92 -52 -104 -66 -18 -19 -31 -24 -61 -21 l-37 3 -3 53 c-2 36 2 62 12 78
9 13 16 36 16 52 0 24 16 45 80 108 44 43 80 83 80 90 0 6 -7 17 -15 24 -8 7
-15 27 -15 44 0 17 -7 40 -15 50 -19 25 -20 141 -2 176 14 27 14 27 166 18 40
-2 121 1 179 9 69 8 110 9 116 3 15 -15 44 -12 105 10 89 31 256 46 280 24z
m-1444 -9 c89 -8 115 -23 115 -67 0 -15 4 -28 9 -28 5 0 28 -39 52 -86 52
-105 48 -119 -32 -120 -30 0 -60 -1 -67 -2 -8 -1 -43 -30 -79 -64 -47 -46 -74
-82 -99 -135 -41 -89 -68 -110 -119 -93 -44 15 -60 40 -40 66 11 15 14 57 15
183 l0 163 -45 46 c-47 48 -52 65 -19 71 10 1 26 8 34 15 8 7 40 20 70 30 30
10 59 22 63 26 8 7 19 7 142 -5z m-3520 -26 c5 -5 17 -9 27 -9 23 0 68 -28 68
-42 0 -6 -13 -26 -30 -45 -24 -27 -30 -43 -30 -81 0 -27 -7 -57 -15 -68 -19
-25 -19 -78 0 -94 11 -9 15 -35 15 -104 -1 -86 -2 -92 -26 -109 -39 -29 -71
-15 -95 38 -11 24 -24 47 -29 50 -6 3 -10 14 -10 23 0 16 -116 142 -150 162
-8 6 -43 10 -77 10 -35 0 -65 5 -69 11 -7 12 29 91 54 117 6 7 12 24 12 38 0
33 32 62 77 69 61 9 115 22 158 38 39 15 101 13 120 -4z m-805 -89 c14 -26 12
-62 -5 -84 -8 -11 -15 -41 -15 -66 0 -25 -7 -55 -15 -66 -24 -31 -19 -61 13
-72 15 -5 51 -33 80 -61 40 -41 52 -60 52 -84 0 -17 7 -38 15 -47 21 -23 29
-79 16 -112 -15 -39 -67 -39 -102 -2 -13 15 -37 33 -54 40 -16 8 -37 18 -45
23 -83 48 -97 51 -208 51 -100 0 -115 -3 -161 -27 -33 -17 -53 -34 -57 -49 -3
-13 -12 -28 -20 -35 -18 -15 -18 -43 1 -59 8 -7 15 -28 15 -46 0 -25 10 -45
35 -73 19 -21 35 -44 35 -52 0 -19 81 -99 100 -99 9 0 27 -12 41 -26 13 -14
40 -32 59 -40 19 -8 44 -24 56 -35 31 -29 94 -59 125 -59 14 0 38 -9 52 -20
16 -13 41 -20 69 -20 23 0 52 -7 62 -15 29 -22 288 -22 306 0 7 8 25 15 41 15
38 0 115 43 166 92 48 47 93 128 93 168 0 15 7 33 15 40 10 8 15 31 15 66 0
33 5 58 15 67 9 9 15 40 17 82 4 90 21 102 77 57 22 -18 49 -36 60 -40 11 -4
40 -26 65 -49 24 -24 51 -43 59 -43 8 0 26 -9 40 -20 14 -11 32 -20 40 -20 9
0 18 -4 22 -9 3 -6 30 -21 59 -35 45 -21 67 -26 125 -24 54 2 74 -2 89 -15 25
-23 63 -21 106 4 19 11 40 18 45 15 12 -8 166 71 204 104 16 14 35 41 43 60 8
19 23 44 34 55 22 23 100 172 100 190 0 28 128 35 154 9 17 -16 22 -74 8 -74
-14 0 -32 -48 -32 -85 0 -57 -72 -181 -153 -263 -54 -56 -93 -84 -157 -116
-47 -24 -102 -46 -122 -50 -21 -4 -38 -11 -38 -16 0 -14 -273 -13 -287 1 -6 6
-35 14 -64 19 -70 11 -135 34 -236 83 -86 42 -113 43 -113 3 0 -14 -16 -56
-35 -95 -19 -38 -35 -73 -35 -77 0 -5 -12 -18 -26 -30 -14 -13 -29 -35 -33
-51 -4 -16 -16 -29 -27 -31 -10 -2 -31 -15 -45 -29 -29 -27 -180 -103 -205
-103 -8 0 -32 -9 -53 -19 -31 -16 -60 -20 -176 -20 -86 -1 -143 -5 -152 -12
-9 -8 -13 -39 -13 -103 0 -87 -8 -116 -33 -116 -5 0 -55 45 -112 100 -57 55
-109 100 -117 100 -7 0 -92 79 -188 176 -96 96 -189 181 -205 188 -17 7 -74
56 -129 109 -54 54 -104 97 -112 97 -7 0 -32 20 -55 45 -23 25 -53 51 -67 58
-54 26 -100 136 -147 352 -8 33 -12 61 -11 63 10 10 36 -14 36 -34 0 -18 6
-24 20 -24 12 0 35 -7 53 -16 47 -25 155 -20 185 8 20 20 22 30 22 127 -1 77
-5 111 -15 125 -8 11 -15 32 -15 48 0 15 -4 28 -10 28 -5 0 -10 4 -10 10 0 6
144 9 380 9 361 0 380 -1 390 -19z m-1040 -185 c0 -8 -4 -15 -10 -15 -5 0 -10
7 -10 15 0 8 5 15 10 15 6 0 10 -7 10 -15z m3694 -216 c14 -28 26 -63 26 -77
0 -15 7 -36 15 -46 8 -11 15 -34 15 -52 0 -17 7 -37 15 -44 8 -7 15 -19 15
-27 0 -8 9 -26 20 -40 11 -14 20 -31 20 -38 0 -6 12 -22 26 -36 29 -27 57 -87
50 -106 -8 -20 -41 -16 -102 12 -30 14 -59 25 -64 25 -6 0 -10 -42 -10 -99 0
-83 -3 -102 -20 -124 -11 -14 -20 -31 -20 -39 0 -20 -49 -69 -86 -84 -18 -8
-45 -26 -59 -41 -25 -28 -26 -28 -56 -10 -17 9 -35 17 -41 17 -17 0 -118 109
-118 127 0 9 -7 24 -15 33 -11 12 -16 44 -18 111 -1 52 -6 99 -10 106 -5 8
-20 4 -52 -13 -110 -62 -144 -46 -94 46 16 29 29 59 29 65 0 7 13 23 30 36 16
13 30 34 30 45 0 12 7 27 15 34 8 7 15 27 15 46 0 18 8 40 17 49 11 11 17 36
18 72 2 54 18 81 55 96 8 3 85 6 171 6 l156 1 27 -51z m-646 -465 c6 -44 16
-51 94 -56 86 -7 107 -26 108 -99 0 -29 6 -51 15 -59 8 -7 15 -20 15 -30 0
-26 69 -96 113 -114 20 -8 37 -20 37 -25 0 -13 53 -41 79 -41 10 0 38 16 61
35 23 19 48 35 56 35 7 0 20 15 28 33 7 17 32 50 55 72 40 38 41 41 41 107 0
82 8 88 110 86 62 -2 74 0 86 17 8 11 13 27 11 36 -3 9 -1 23 4 30 6 11 20 3
56 -34 27 -26 56 -47 65 -47 8 0 21 -7 28 -15 7 -8 18 -15 24 -15 6 0 28 -9
49 -20 20 -11 47 -20 59 -20 13 0 32 -7 42 -15 29 -22 348 -22 366 0 8 10 30
15 65 15 35 0 57 5 65 15 7 8 24 15 38 15 27 0 108 35 118 51 13 22 36 5 64
-50 16 -33 34 -62 40 -66 5 -3 10 -14 10 -24 0 -26 182 -211 207 -211 11 0 26
-7 33 -15 7 -8 21 -15 31 -15 9 0 24 -7 33 -15 8 -8 25 -15 38 -15 13 0 37 -7
53 -17 19 -10 63 -17 120 -20 50 -3 104 -11 122 -19 17 -8 35 -14 40 -14 15 0
53 -94 53 -131 0 -21 8 -47 20 -62 26 -33 26 -37 -10 -77 -17 -19 -44 -62 -61
-97 -17 -34 -35 -65 -40 -68 -5 -4 -9 -14 -9 -25 0 -10 -13 -32 -30 -50 -16
-18 -30 -35 -30 -37 0 -16 -48 -102 -72 -131 -16 -18 -28 -40 -28 -49 0 -27
-41 -63 -72 -63 -15 0 -28 3 -28 8 0 12 -96 52 -126 52 -15 0 -35 7 -43 14 -9
8 -32 18 -50 21 -19 3 -43 12 -55 20 -11 8 -32 15 -46 15 -15 0 -35 7 -46 15
-10 8 -39 15 -64 15 -28 0 -57 8 -75 20 -16 11 -44 20 -61 20 -17 0 -37 7 -44
15 -8 9 -30 15 -57 15 -24 0 -55 7 -68 16 -15 10 -49 17 -89 18 -45 1 -70 6
-83 19 -15 13 -38 17 -99 17 -54 1 -85 5 -98 15 -14 11 -47 15 -116 15 -69 0
-102 4 -116 15 -15 12 -66 14 -278 15 -239 0 -261 1 -290 20 -32 19 -32 19
-61 0 -28 -18 -49 -20 -276 -20 -207 0 -249 -2 -259 -15 -9 -11 -35 -15 -109
-15 -70 0 -103 -4 -117 -15 -13 -10 -45 -14 -106 -15 -49 0 -88 -4 -88 -9 0
-15 -59 -31 -114 -31 -29 0 -59 -7 -70 -15 -11 -8 -41 -15 -67 -15 -29 0 -51
-6 -59 -15 -7 -8 -23 -15 -37 -15 -13 0 -41 -9 -63 -20 -22 -11 -57 -20 -78
-20 -21 0 -47 -7 -58 -15 -10 -8 -33 -15 -49 -15 -17 0 -40 -6 -51 -14 -11 -8
-37 -17 -57 -21 -20 -4 -41 -13 -48 -21 -6 -8 -24 -14 -40 -14 -16 0 -55 -13
-86 -30 -34 -18 -71 -30 -94 -30 -33 0 -38 3 -44 30 -4 17 -11 30 -16 30 -5 0
-9 9 -9 20 0 11 -16 37 -35 59 -19 21 -35 41 -35 45 0 20 -83 176 -105 196
-14 13 -25 28 -25 33 0 14 -51 116 -61 123 -14 9 -10 36 9 57 12 14 18 42 22
105 l5 87 37 6 c20 3 43 11 50 17 7 6 56 12 108 15 98 4 147 17 255 68 33 16
65 29 70 29 16 0 165 156 165 172 0 8 13 26 28 41 16 15 41 54 57 87 16 33 32
60 35 60 4 0 32 -13 63 -30 31 -16 67 -30 79 -30 13 0 32 -7 42 -15 11 -8 40
-15 65 -15 25 0 55 -7 65 -15 29 -22 348 -22 366 0 7 8 25 15 40 15 41 0 181
75 226 121 43 44 58 45 62 3z m-2740 -633 c59 -51 89 -134 57 -161 -8 -7 -15
-21 -15 -30 0 -29 -49 -62 -79 -55 -32 8 -39 19 -33 51 3 15 11 24 23 24 42 0
49 108 9 140 -13 10 -18 22 -14 38 8 28 12 27 52 -7z m6532 0 c0 -4 22 -15 50
-25 35 -12 56 -28 70 -51 36 -58 23 -61 -78 -19 -47 20 -66 17 -101 -12 -53
-45 -37 -83 35 -84 12 0 25 -7 28 -16 10 -27 7 -89 -6 -102 -15 -15 -75 -16
-84 -1 -3 6 -22 17 -40 25 -21 9 -34 21 -34 33 0 10 -7 24 -15 31 -18 15 -20
81 -3 98 7 7 17 26 22 44 9 24 25 39 71 63 55 28 85 34 85 16z m172 -233 c-9
-9 -12 -7 -12 12 0 19 3 21 12 12 9 -9 9 -15 0 -24z m51 -94 c6 -34 -26 -121
-58 -154 -31 -32 -33 -80 -5 -105 16 -15 20 -31 20 -84 l0 -67 -60 -57 -59
-57 -86 0 c-80 0 -88 2 -110 26 -37 40 -35 110 3 147 40 38 82 36 117 -4 20
-24 25 -38 20 -59 -9 -42 23 -50 52 -13 13 15 23 35 23 44 0 9 7 22 15 29 8 7
15 20 15 30 0 10 -7 23 -15 30 -8 7 -15 21 -15 31 0 13 -23 30 -81 60 -74 37
-83 39 -98 25 -10 -9 -29 -16 -43 -16 -38 0 -112 -43 -116 -68 -2 -11 -10 -26
-18 -32 -10 -9 -14 -38 -14 -112 l0 -99 57 -60 c31 -32 64 -59 74 -59 10 0 21
-5 24 -10 4 -6 22 -17 41 -25 18 -7 45 -25 59 -39 16 -16 37 -26 55 -26 29 0
124 -43 135 -60 3 -6 24 -10 45 -10 21 0 40 -4 42 -8 5 -14 87 -52 111 -52 12
0 37 -9 55 -20 19 -12 50 -20 76 -20 26 0 48 -6 56 -15 7 -8 28 -17 49 -21 20
-4 45 -13 56 -20 11 -8 30 -14 43 -14 12 0 33 -6 45 -14 12 -8 45 -18 72 -22
28 -3 62 -13 77 -20 15 -8 38 -14 51 -14 13 0 32 -7 43 -15 10 -8 33 -15 49
-15 17 0 39 -7 49 -15 11 -8 34 -15 50 -15 17 0 40 -7 50 -15 11 -8 34 -15 52
-15 17 0 37 -7 44 -15 7 -8 19 -15 27 -15 8 0 26 -9 40 -20 14 -11 37 -20 52
-20 14 0 108 -41 209 -92 168 -85 188 -98 253 -165 39 -40 80 -73 90 -73 12 0
24 -12 32 -32 8 -18 24 -41 35 -52 27 -24 62 -95 67 -137 3 -17 11 -39 20 -49
20 -22 20 -99 0 -127 -8 -12 -17 -35 -19 -51 -2 -16 -10 -40 -20 -53 -9 -13
-16 -31 -16 -39 0 -9 -27 -42 -60 -73 -47 -45 -66 -57 -92 -57 -18 0 -42 -7
-52 -15 -21 -16 -152 -22 -158 -7 -1 5 -29 22 -62 38 -32 16 -67 33 -77 39
-11 5 -19 19 -19 29 0 11 -9 29 -19 40 -14 15 -22 43 -27 89 l-7 67 45 45 c36
35 53 45 79 45 59 0 103 -61 83 -114 -7 -19 -74 -22 -91 -5 -20 20 -43 2 -43
-33 0 -26 11 -42 60 -90 l61 -58 95 0 96 0 79 77 79 76 0 113 c0 87 -3 114
-15 124 -8 7 -15 22 -15 33 0 24 -210 237 -233 237 -8 0 -26 9 -40 20 -14 11
-32 20 -39 20 -8 0 -25 11 -37 24 -27 29 -179 106 -209 106 -12 0 -48 16 -81
35 -32 19 -69 35 -82 35 -12 0 -37 9 -55 21 -50 31 -77 3 -34 -36 22 -19 64
-91 76 -127 4 -12 13 -28 20 -36 11 -10 14 -48 14 -155 0 -126 -3 -145 -20
-167 -11 -14 -20 -33 -20 -42 0 -10 -11 -25 -24 -33 -40 -26 -40 -44 -2 -60
19 -8 37 -19 41 -25 3 -5 14 -10 24 -10 9 0 30 -13 46 -30 16 -16 36 -30 45
-30 9 0 24 -8 33 -18 22 -24 67 -110 67 -126 0 -8 6 -16 14 -19 8 -3 17 -27
21 -55 5 -39 2 -57 -16 -93 -28 -56 -58 -89 -79 -89 -9 0 -25 -9 -35 -20 -16
-17 -31 -20 -116 -20 l-97 0 -61 59 c-59 57 -61 61 -61 110 0 46 4 55 40 91
49 49 86 52 154 14 l47 -26 -3 -52 -3 -51 -40 -3 c-33 -2 -46 3 -73 27 -30 28
-62 33 -62 9 0 -34 107 -108 157 -108 31 0 120 47 138 73 9 13 15 44 15 80 0
57 -1 60 -57 118 -31 32 -64 59 -74 59 -10 0 -20 4 -23 9 -3 4 -44 27 -91 50
-74 36 -93 41 -154 41 -91 0 -134 21 -228 114 l-73 70 0 87 0 86 45 42 c44 41
45 41 124 41 44 0 83 -5 86 -10 4 -6 22 -17 41 -25 34 -14 34 -15 34 -77 0
-84 -5 -90 -71 -86 -53 3 -54 4 -57 36 -2 18 3 44 12 57 18 28 12 35 -30 35
-25 0 -43 -10 -78 -44 -25 -24 -46 -48 -46 -52 1 -5 16 -34 34 -64 46 -78 104
-109 206 -109 72 0 77 1 112 34 59 55 88 124 88 210 0 52 -4 76 -15 85 -8 7
-15 28 -15 46 0 25 -10 45 -35 73 -19 21 -35 44 -35 51 0 18 -121 140 -140
140 -9 0 -29 14 -45 30 -18 19 -39 30 -56 30 -15 0 -43 9 -62 20 -21 13 -49
20 -70 18 -19 -1 -46 6 -60 15 -29 19 -82 23 -92 6 -4 -5 0 -18 9 -28 12 -13
16 -39 16 -108 0 -78 -4 -99 -26 -142 l-25 -51 -80 0 c-78 0 -80 1 -118 38
-21 20 -49 57 -61 80 -19 39 -20 46 -7 60 8 10 17 26 19 37 2 11 13 21 25 23
12 2 27 10 33 18 31 37 110 -10 110 -66 0 -31 -11 -41 -53 -45 -12 -1 -25 -3
-29 -4 -5 0 -8 -8 -8 -16 0 -9 19 -24 43 -34 44 -19 69 -15 94 18 18 23 16
116 -2 131 -8 7 -15 20 -15 30 0 10 -6 23 -14 30 -8 6 -16 21 -18 32 -2 12
-19 30 -38 41 -19 11 -48 30 -63 43 -16 13 -41 24 -56 24 -15 0 -36 7 -47 15
-10 8 -29 15 -41 15 -12 0 -52 16 -87 35 -36 19 -74 35 -86 35 -11 0 -50 16
-87 35 -37 19 -72 35 -79 35 -6 0 -17 7 -24 15 -7 8 -20 15 -29 15 -23 0 -184
167 -210 218 -32 65 -30 174 6 238 31 56 104 127 160 155 47 24 177 26 207 4
11 -8 29 -15 39 -15 23 0 107 82 107 104 0 9 9 20 20 26 11 6 20 18 20 27 0
25 27 -2 33 -33z m-6658 -84 c55 -30 114 -85 115 -106 0 -6 8 -22 18 -35 15
-20 18 -41 17 -122 -1 -54 -6 -102 -11 -105 -6 -4 -16 -21 -23 -39 -15 -36
-152 -173 -174 -173 -8 0 -20 -7 -27 -15 -7 -8 -21 -15 -32 -15 -11 0 -26 -7
-34 -15 -9 -8 -24 -15 -34 -15 -10 0 -21 -4 -25 -9 -8 -14 -111 -61 -133 -61
-11 0 -44 -13 -75 -30 -31 -16 -69 -30 -84 -30 -14 0 -34 -6 -42 -14 -13 -12
-42 -21 -84 -25 -4 -1 -41 -34 -82 -75 l-75 -74 0 -86 c0 -81 1 -86 23 -90
100 -21 128 -4 79 47 -23 23 -32 43 -32 65 0 38 15 47 79 46 63 -1 91 -35 91
-109 0 -61 -7 -85 -24 -85 -6 0 -41 -16 -78 -35 l-66 -35 -50 23 c-59 27 -79
46 -87 80 -4 15 -13 31 -21 38 -20 17 -17 62 7 93 11 14 19 37 17 50 -1 13 3
31 11 39 35 43 -29 63 -84 27 -16 -11 -42 -20 -56 -20 -14 0 -34 -7 -45 -15
-11 -8 -41 -15 -70 -15 -33 0 -56 -5 -64 -15 -7 -8 -20 -15 -29 -15 -9 0 -53
-37 -98 -83 -61 -63 -92 -104 -127 -172 -46 -89 -46 -89 -46 -191 0 -61 4
-105 10 -109 6 -4 18 -24 27 -46 25 -64 51 -75 166 -69 l97 5 55 58 c50 52 55
62 55 102 0 60 -32 97 -86 99 -42 1 -41 3 -27 -65 11 -57 -92 -82 -138 -33
-23 25 -23 26 -6 55 9 17 17 36 17 42 0 7 12 24 25 40 23 25 29 27 110 27 l85
0 40 -39 c22 -21 40 -45 40 -53 0 -9 9 -27 20 -41 11 -14 20 -28 20 -32 0 -4
-9 -18 -20 -32 -11 -14 -20 -39 -20 -55 0 -22 -14 -44 -58 -88 -50 -51 -63
-60 -94 -60 -19 0 -41 -7 -48 -15 -9 -11 -34 -15 -92 -15 -51 0 -90 -5 -106
-14 -15 -8 -43 -17 -63 -21 -21 -3 -42 -12 -49 -20 -7 -8 -20 -15 -29 -15 -10
0 -48 -32 -87 -71 -68 -71 -69 -72 -68 -125 0 -34 6 -60 16 -71 9 -10 18 -27
20 -38 2 -11 13 -21 25 -23 12 -2 27 -10 33 -18 17 -19 94 -19 110 1 7 8 20
15 28 15 22 0 72 50 72 72 0 13 -8 18 -25 18 -14 0 -25 -4 -25 -9 0 -5 -14
-19 -30 -31 -22 -16 -38 -20 -60 -15 -29 6 -30 9 -30 61 0 47 3 56 23 65 12 5
33 16 47 24 35 20 51 19 109 -11 l51 -27 0 -67 0 -67 -59 -56 -60 -57 -96 0
-96 0 -60 57 c-50 47 -59 62 -59 90 0 19 -7 41 -15 50 -14 14 -14 18 0 39 8
13 15 36 15 52 0 16 9 37 20 47 11 10 20 26 20 37 0 21 76 98 97 98 8 0 21 7
29 15 9 8 24 15 33 15 10 0 24 7 31 15 7 8 20 15 29 15 19 0 41 19 41 35 0 6
-16 28 -35 49 -24 27 -35 48 -35 70 0 17 -7 40 -15 50 -21 27 -20 173 0 200 8
11 15 34 15 52 0 18 5 36 10 39 6 4 17 21 24 40 8 18 29 47 47 65 27 25 31 34
23 48 -15 23 -49 27 -76 8 -12 -9 -37 -16 -55 -16 -17 0 -34 -4 -37 -9 -9 -14
-172 -91 -193 -91 -10 0 -45 -14 -78 -30 -33 -16 -67 -30 -75 -30 -8 0 -28
-13 -43 -30 -30 -32 -47 -38 -47 -17 0 41 303 214 435 247 39 10 98 30 132 44
35 14 70 26 79 26 24 0 124 30 156 46 14 8 36 14 48 14 12 0 76 18 142 40 67
22 129 40 139 40 10 0 24 7 33 15 8 8 23 15 33 15 10 0 41 11 68 25 28 13 67
25 87 25 20 0 43 7 52 15 8 8 28 15 44 15 16 0 41 9 55 20 14 11 36 20 50 20
13 0 49 14 80 30 31 17 66 30 78 30 23 0 186 76 195 91 3 5 13 9 23 9 21 0
141 122 141 143 0 8 7 20 15 27 10 8 15 30 15 65 0 35 -5 57 -15 65 -8 7 -15
20 -15 30 0 20 -92 110 -113 110 -8 0 -20 7 -27 15 -19 23 -111 20 -143 -5
-52 -41 -65 -11 -18 42 26 29 37 34 98 39 37 3 74 7 80 7 7 1 37 -11 68 -28z
m-87 -285 c2 -60 0 -74 -18 -93 -18 -19 -31 -22 -92 -22 -61 0 -76 4 -105 26
-28 21 -33 31 -33 65 0 21 3 39 6 39 3 0 26 -16 51 -35 30 -23 50 -32 56 -26
6 6 4 16 -7 26 -22 23 -20 45 7 72 18 18 32 22 77 20 l55 -2 3 -70z m1359
-141 c-3 -3 -12 -4 -19 -1 -8 3 -5 6 6 6 11 1 17 -2 13 -5z m3570 -36 c-17
-11 -28 1 -14 16 8 10 14 11 19 3 4 -6 2 -15 -5 -19z m203 -24 c0 -17 -22 -14
-28 4 -2 7 3 12 12 12 9 0 16 -7 16 -16z m-43 -10 c11 -10 26 -14 44 -10 18 3
34 0 43 -9 20 -21 29 -19 21 4 -5 18 -3 19 24 8 16 -6 28 -15 25 -19 -3 -4 10
-8 28 -8 19 0 60 -13 91 -30 32 -16 66 -30 76 -30 10 0 26 -9 36 -20 10 -11
24 -20 32 -20 7 0 21 -4 31 -9 9 -5 46 -24 82 -42 565 -284 1076 -688 1530
-1209 126 -144 266 -330 377 -500 30 -47 68 -104 84 -127 16 -23 29 -44 29
-48 0 -3 13 -25 29 -48 42 -62 196 -355 240 -457 13 -30 34 -77 46 -105 13
-27 32 -75 44 -105 22 -54 27 -66 51 -125 18 -43 104 -307 129 -395 64 -223
105 -417 151 -705 43 -275 65 -887 40 -1125 -6 -52 -15 -147 -20 -210 -21
-250 -78 -555 -156 -840 -27 -98 -122 -392 -144 -445 -7 -16 -16 -39 -21 -50
-40 -97 -92 -221 -99 -234 -4 -9 -51 -104 -104 -211 -229 -466 -527 -879 -916
-1270 -214 -215 -409 -389 -545 -485 -24 -16 -80 -57 -126 -90 -46 -33 -98
-69 -115 -80 -18 -11 -50 -32 -71 -47 -22 -14 -55 -35 -74 -45 -44 -24 -130
-79 -146 -93 -7 -5 -18 -10 -25 -11 -7 0 -35 -14 -63 -30 -27 -16 -57 -32 -65
-35 -8 -3 -27 -12 -42 -20 -36 -19 -55 -19 -38 1 10 12 10 15 -3 15 -8 0 -18
6 -20 13 -4 9 -8 8 -17 -3 -7 -9 -13 -11 -16 -4 -2 6 -18 8 -34 6 -37 -5 -44
-42 -8 -42 20 0 21 -2 7 -15 -19 -19 -49 -10 -49 16 0 12 -5 16 -15 13 -9 -4
-15 0 -15 10 0 10 8 16 21 16 12 0 29 8 38 19 19 21 93 61 115 61 9 0 20 9 26
20 6 11 17 20 25 20 8 0 18 6 22 14 4 8 17 16 28 18 11 1 25 8 30 15 6 6 30
22 55 34 25 13 50 27 55 31 6 5 21 17 34 28 13 11 32 22 42 25 11 4 19 11 19
16 0 5 5 9 11 9 6 0 28 14 49 30 21 16 43 30 49 30 6 0 11 4 11 8 0 4 12 15
28 24 15 9 40 28 55 42 16 14 40 32 55 40 15 8 38 25 52 38 14 13 48 41 75 63
28 22 81 67 120 100 38 33 86 73 105 90 19 16 96 90 170 165 296 297 535 607
790 1025 45 74 221 415 258 500 11 28 33 77 48 110 34 79 152 396 170 460 8
28 21 75 30 105 8 30 19 69 24 85 109 360 189 993 176 1395 -13 405 -70 827
-155 1145 -29 106 -39 144 -74 265 -9 30 -32 100 -52 155 -20 55 -40 111 -45
125 -28 79 -42 116 -49 125 -4 5 -16 33 -26 60 -21 59 -199 424 -249 510 -19
33 -44 78 -56 100 -41 75 -233 360 -324 480 -239 317 -558 652 -826 865 -24
19 -62 50 -84 68 -23 17 -45 36 -51 40 -28 21 -205 149 -225 162 -12 8 -33 23
-45 33 -13 9 -28 17 -33 17 -5 0 -15 7 -22 15 -7 9 -63 45 -124 82 -61 37
-113 69 -116 72 -3 3 -52 30 -110 60 -58 29 -112 60 -121 67 -8 8 -19 14 -22
14 -6 0 -87 37 -247 114 -25 11 -58 29 -73 39 -15 11 -34 17 -41 14 -17 -7
-41 22 -43 51 -2 19 3 22 33 22 20 0 43 -7 51 -16z m-3931 -21 c-10 -10 -19 5
-10 18 6 11 8 11 12 0 2 -7 1 -15 -2 -18z m134 17 c8 -5 11 -10 5 -10 -5 0 -2
-7 9 -15 24 -18 12 -35 -25 -35 -17 0 -28 -4 -24 -10 3 -5 -7 -13 -22 -16 -35
-9 -187 -85 -191 -96 -2 -4 -12 -8 -23 -8 -11 0 -25 -5 -32 -10 -7 -6 -57 -33
-112 -61 -197 -101 -462 -267 -650 -407 -5 -4 -22 -15 -36 -24 -40 -25 -232
-181 -324 -262 -186 -163 -439 -426 -570 -591 -22 -27 -42 -52 -45 -55 -44
-38 -284 -387 -417 -605 -138 -226 -322 -624 -408 -880 -13 -39 -28 -81 -33
-95 -10 -24 -52 -161 -86 -280 -46 -160 -96 -412 -125 -620 -77 -570 -63
-1075 43 -1635 48 -251 134 -562 216 -775 12 -30 25 -66 30 -80 46 -142 272
-606 386 -793 32 -54 64 -105 69 -115 54 -92 316 -454 399 -550 138 -160 192
-218 327 -352 86 -85 184 -179 219 -209 78 -68 180 -151 210 -171 12 -8 32
-24 44 -35 12 -11 57 -45 99 -75 43 -30 98 -70 122 -87 24 -18 49 -33 54 -33
6 0 11 -4 11 -9 0 -5 25 -24 56 -43 72 -43 81 -48 131 -81 24 -15 47 -27 53
-27 5 0 10 -4 10 -10 0 -5 5 -10 11 -10 6 0 38 -18 71 -40 33 -22 68 -40 78
-40 10 0 20 -7 23 -14 4 -11 1 -13 -11 -9 -15 6 -14 3 2 -15 17 -20 18 -22 2
-22 -16 0 -16 -1 0 -17 12 -13 13 -18 4 -21 -7 -3 -17 3 -22 12 -5 9 -17 16
-26 16 -15 0 -15 2 -2 10 8 5 12 10 8 10 -3 0 -13 3 -22 6 -12 5 -16 0 -16
-18 0 -13 5 -29 12 -36 7 -7 9 -12 5 -12 -5 0 -18 11 -31 25 -13 14 -33 25
-44 25 -11 0 -24 4 -27 10 -3 5 -16 10 -28 11 -12 0 -16 3 -9 6 22 9 13 25
-12 19 -16 -4 -41 4 -77 23 -93 50 -119 66 -119 74 0 4 -6 7 -14 7 -15 0 -111
59 -137 84 -9 9 -19 16 -23 16 -12 0 -173 110 -192 131 -9 11 -21 19 -27 19
-8 0 -80 52 -97 70 -3 3 -27 23 -55 44 -27 22 -54 44 -60 50 -5 6 -23 22 -40
34 -134 103 -470 440 -635 637 -86 103 -291 376 -338 450 -156 247 -333 570
-391 715 -8 19 -26 62 -42 95 -38 84 -99 242 -99 258 0 7 -4 17 -8 23 -5 5
-21 47 -36 94 -25 77 -42 132 -92 310 -8 30 -22 77 -30 104 -7 26 -14 56 -14
66 0 10 -6 45 -14 77 -7 32 -21 103 -31 158 -9 55 -21 123 -26 150 -5 28 -14
97 -19 155 -6 58 -15 132 -22 165 -8 40 -12 198 -12 475 -1 345 2 438 17 550
10 74 25 187 33 250 26 192 74 424 125 605 11 39 27 95 36 125 46 164 156 461
224 608 16 34 29 64 29 67 0 14 175 351 216 417 13 21 24 40 24 42 0 3 13 24
28 48 16 24 52 79 80 123 105 166 265 382 400 542 125 148 492 513 598 595 16
13 38 31 49 41 37 35 330 253 385 287 30 19 57 37 60 40 10 10 111 70 119 70
5 0 14 6 20 14 7 8 33 26 59 39 26 14 63 34 82 45 28 17 296 152 387 194 11 6
27 8 34 6 8 -3 25 6 39 19 14 13 33 23 42 23 10 0 18 5 18 10 0 6 12 10 26 10
14 0 23 -4 20 -9 -3 -5 6 -11 19 -14 18 -3 29 1 35 14 6 10 25 20 43 22 17 2
37 4 42 5 6 1 17 -3 25 -8z m3623 3 c-7 -2 -19 -2 -25 0 -7 3 -2 5 12 5 14 0
19 -2 13 -5z m72 -2 c10 -17 -12 -21 -25 -6 -10 12 -10 15 3 15 9 0 18 -4 22
-9z m-3585 -17 c0 -15 -54 -20 -84 -8 -28 11 -6 23 39 22 31 0 45 -5 45 -14z
m1712 -181 c34 -65 75 -140 90 -168 15 -27 33 -62 39 -77 6 -16 13 -28 16 -28
17 0 42 23 47 45 4 14 11 25 16 25 6 0 10 6 10 14 0 8 6 21 13 28 6 8 20 29
31 48 96 180 121 221 131 221 16 0 35 -78 40 -166 4 -49 12 -119 20 -155 7
-36 15 -94 17 -130 l3 -65 -34 -3 c-38 -4 -56 9 -56 41 0 12 -4 67 -8 122 -13
164 -36 221 -65 163 -7 -13 -27 -50 -46 -83 -40 -68 -53 -92 -87 -155 -38 -69
-39 -71 -54 -63 -8 5 -33 44 -55 88 -84 161 -132 245 -139 245 -14 0 -41 -155
-44 -248 -2 -86 -4 -93 -24 -98 -12 -3 -30 -3 -41 0 -19 6 -19 7 -1 44 10 21
25 82 33 137 45 305 52 335 71 335 8 0 42 -53 77 -117z m-876 22 c-3 -13 -2
-44 4 -67 10 -41 27 -129 54 -288 7 -41 20 -92 29 -113 19 -44 12 -50 -49 -45
l-39 3 -6 70 c-3 39 -11 93 -17 120 -15 65 -32 156 -42 224 -5 29 -13 58 -19
64 -26 26 6 55 63 56 25 1 28 -2 22 -24z m1836 -16 c4 -19 12 -54 18 -79 7
-25 19 -72 27 -105 33 -136 45 -182 58 -230 7 -27 16 -65 20 -83 l7 -33 -52 3
-53 3 -2 67 c-1 45 -8 76 -20 95 -12 18 -19 49 -20 88 -2 48 -22 171 -30 183
-14 19 -133 -137 -138 -180 -1 -13 -11 -28 -22 -33 -27 -14 -73 -84 -81 -122
-7 -38 -4 -37 -51 -18 l-36 15 25 25 c14 14 38 44 54 68 16 23 31 44 35 47 3
3 29 39 57 80 29 41 73 102 98 135 24 33 52 72 62 87 21 35 35 31 44 -13z
m509 -65 l50 -17 -20 -21 c-12 -12 -21 -26 -21 -30 0 -4 -6 -22 -14 -39 -8
-18 -22 -57 -31 -87 -10 -30 -23 -68 -29 -85 -30 -73 -69 -192 -70 -212 -2
-34 -12 -37 -60 -17 -49 20 -55 28 -31 41 15 9 40 72 106 268 22 66 44 128 49
137 6 10 10 31 10 48 0 35 -3 35 61 14z m-2874 -58 c8 -14 197 -216 312 -333
l65 -66 -24 -19 c-32 -26 -92 -21 -100 8 -3 11 -22 40 -42 64 -30 34 -42 42
-62 38 -33 -7 -56 7 -27 17 27 8 27 17 -6 57 -66 80 -122 133 -132 123 -12
-12 -18 -216 -7 -234 5 -7 1 -20 -8 -30 -20 -22 -25 -133 -7 -155 11 -13 9
-17 -14 -26 -48 -18 -58 -14 -51 23 4 17 9 59 12 92 3 33 11 105 19 160 8 55
17 144 21 198 5 86 8 97 24 97 11 0 23 -6 27 -14z m3192 -52 c10 -10 -98 -76
-226 -138 -40 -20 -38 -36 19 -176 6 -14 14 -36 18 -50 5 -14 18 -50 29 -80
26 -67 26 -70 1 -70 -22 0 -90 66 -90 87 0 7 -6 27 -14 45 -8 18 -24 58 -36
88 -11 30 -26 65 -33 78 -14 30 -2 50 46 77 100 56 206 127 211 141 5 12 14
15 38 10 17 -3 34 -9 37 -12z m-3598 -274 c46 -91 86 -167 89 -170 9 -8 69
-134 66 -137 -4 -4 -115 20 -191 42 -33 9 -73 21 -90 25 -85 23 -184 50 -215
59 -52 16 -70 14 -70 -9 0 -19 61 -142 81 -164 5 -6 9 -16 9 -22 0 -7 16 -39
35 -71 19 -32 35 -64 35 -70 0 -15 -55 -45 -64 -36 -3 4 -6 14 -6 23 0 9 -22
59 -49 111 -87 168 -149 286 -162 307 -22 35 -1 44 61 26 30 -8 73 -19 95 -24
22 -4 54 -12 70 -18 17 -6 55 -17 85 -25 30 -9 82 -23 115 -32 33 -9 76 -17
95 -18 30 -2 35 1 32 18 -2 11 -9 31 -16 45 -70 135 -121 228 -133 242 -19 21
-11 46 19 57 13 5 24 8 24 7 1 0 39 -75 85 -166z m2664 151 c3 -5 -3 -12 -13
-16 -22 -6 -52 3 -52 16 0 12 57 12 65 0z m1299 -72 c-3 -5 -15 -9 -27 -9 -18
0 -31 -17 -65 -84 -23 -46 -42 -92 -42 -103 0 -11 -9 -28 -21 -39 -34 -31
-101 -173 -95 -200 8 -29 -10 -41 -32 -21 -9 8 -27 18 -39 21 -25 8 -31 37
-10 54 6 6 44 75 82 154 39 79 72 145 75 148 12 12 50 102 50 119 0 10 3 20 6
24 9 9 125 -53 118 -64z m-2694 -38 c0 -24 -15 -35 -67 -50 -46 -13 -114 -4
-78 10 11 4 32 8 46 8 14 1 37 14 54 31 29 31 45 31 45 1z m2751 14 c-1 -15
-24 -12 -29 3 -3 9 2 13 12 10 10 -1 17 -7 17 -13z m83 -30 c24 -10 36 -22 36
-35 0 -26 -30 -26 -37 -1 -3 11 -14 21 -26 23 -11 2 -22 9 -25 16 -5 16 8 15
52 -3z m-3634 -24 c0 -12 -39 -25 -48 -16 -7 7 17 25 36 25 6 0 12 -4 12 -9z
m3915 -136 l29 -24 -21 -28 c-71 -92 -211 -313 -217 -342 -9 -49 2 -96 31
-127 29 -32 23 -43 -11 -21 -78 52 -107 154 -67 238 12 24 47 80 78 124 91
129 123 179 123 192 0 20 22 15 55 -12z m-521 -11 c22 -9 20 -24 -3 -24 -21 0
-34 13 -24 24 8 7 8 7 27 0z m76 -44 c0 -5 9 -10 19 -10 25 0 37 -18 21 -33
-9 -9 -16 -7 -30 11 -10 12 -25 22 -34 22 -8 0 -18 5 -21 10 -4 6 5 10 19 10
14 0 26 -4 26 -10z m-4630 -126 c131 -65 190 -184 160 -325 -7 -32 -17 -59
-21 -59 -5 0 -9 -6 -9 -14 0 -20 -93 -113 -97 -99 -3 7 10 25 26 41 17 16 31
37 31 46 0 9 7 33 15 53 14 32 13 41 -2 92 -21 69 -75 154 -119 187 -18 14
-59 34 -91 43 -52 16 -63 16 -108 3 -27 -8 -55 -21 -63 -28 -15 -15 -32 -18
-32 -6 0 9 55 52 66 52 3 0 20 6 37 14 18 8 39 17 47 20 27 10 124 -2 160 -20z
m5416 -58 c3 -7 -18 -44 -45 -82 -28 -38 -64 -87 -80 -109 -97 -136 -110 -151
-156 -174 -38 -19 -57 -22 -97 -18 -28 4 -53 9 -57 12 -12 13 26 25 77 25 49
0 56 3 93 43 44 46 142 182 190 265 31 52 63 69 75 38z m-5762 -73 c-55 -94
-31 -225 58 -315 53 -53 111 -79 192 -87 68 -6 70 -7 46 -21 -17 -10 -55 -14
-115 -15 -86 0 -93 2 -142 33 -32 20 -66 55 -88 87 -34 52 -35 56 -35 153 0
76 4 102 15 112 8 7 15 18 15 24 0 16 69 91 76 83 4 -3 -6 -28 -22 -54z m4816
42 c0 -17 -2 -18 -24 -9 -23 9 -20 24 4 24 11 0 20 -7 20 -15z m65 -26 c10
-15 -1 -22 -24 -14 -12 3 -19 11 -16 16 8 12 32 11 40 -2z m99 -7 c-6 -4 -13
-15 -17 -24 -7 -20 -33 -23 -57 -8 -25 16 7 33 70 38 9 1 11 -1 4 -6z m-3390
-71 c17 -6 17 -8 3 -14 -8 -3 -21 1 -27 9 -13 15 -6 17 24 5z m2740 -6 c8 -8
30 -15 50 -15 20 0 38 -6 43 -14 4 -8 22 -16 38 -18 17 -1 29 -7 28 -13 -1 -5
13 -11 30 -12 18 -2 33 -7 35 -13 2 -5 11 -10 20 -10 10 0 32 -9 50 -20 17
-11 32 -17 32 -14 0 3 12 -1 28 -9 15 -8 45 -24 67 -35 36 -18 83 -43 184 -98
19 -11 40 -23 45 -27 6 -4 70 -47 143 -95 266 -176 581 -452 760 -667 42 -49
85 -101 97 -115 111 -128 296 -414 406 -625 235 -452 373 -929 420 -1455 42
-459 -3 -978 -122 -1405 -55 -197 -98 -319 -172 -494 -214 -499 -495 -899
-897 -1276 -115 -108 -159 -147 -224 -197 -33 -25 -69 -54 -81 -65 -11 -10
-27 -22 -36 -28 -36 -22 -144 -95 -153 -102 -5 -5 -28 -20 -50 -33 -22 -13
-41 -28 -43 -32 -2 -4 -8 -8 -14 -8 -6 0 -30 -13 -55 -30 -24 -16 -47 -30 -50
-30 -15 0 -139 -66 -150 -80 -10 -13 -14 -13 -31 4 -12 10 -26 15 -33 10 -9
-5 -7 -10 7 -15 17 -7 16 -8 -6 -9 -14 0 -34 -7 -44 -15 -27 -21 -53 -20 -36
0 7 8 18 15 26 15 7 0 15 4 18 8 3 5 -9 7 -27 4 l-32 -4 25 15 c14 8 41 24 60
35 19 12 45 26 57 31 11 5 24 15 28 20 3 6 15 11 26 11 10 0 19 7 19 15 0 8 9
15 19 15 11 0 27 8 36 17 10 9 34 25 54 36 20 10 41 24 46 31 6 7 17 15 25 19
19 9 54 30 60 38 3 3 48 37 100 77 52 39 106 81 120 95 14 13 32 27 41 33 44
25 266 235 375 355 74 80 265 320 289 360 12 21 92 140 103 154 43 53 282 494
282 520 0 3 12 32 26 63 68 149 165 442 207 627 135 593 135 1116 1 1715 -41
186 -136 470 -214 645 -5 11 -18 43 -30 70 -33 77 -162 326 -184 354 -11 14
-30 46 -43 71 -13 27 -156 234 -217 315 -205 272 -447 514 -726 725 -141 107
-351 250 -368 250 -5 0 -14 6 -20 13 -6 7 -44 30 -84 51 -40 20 -109 57 -153
81 -44 24 -88 44 -97 44 -10 1 -22 9 -27 19 -5 10 -19 18 -31 19 -12 1 -30 9
-40 18 -11 10 -23 14 -29 11 -12 -8 -91 40 -91 54 0 11 36 6 83 -12 15 -6 30
-8 34 -4 3 3 1 6 -6 6 -7 0 -24 9 -38 20 -14 11 -21 20 -15 20 6 0 17 -7 26
-15z m-6781 -113 c9 -10 17 -26 17 -35 0 -9 4 -19 10 -22 5 -3 18 -26 29 -51
16 -36 29 -49 65 -65 25 -11 48 -24 51 -29 12 -20 112 -11 162 14 86 44 151
128 128 166 -9 15 -41 12 -55 -4 -20 -25 -80 15 -80 54 0 39 35 60 99 60 52 0
62 -3 80 -26 12 -15 21 -41 21 -58 0 -18 5 -37 10 -42 7 -7 -3 -38 -32 -96
-39 -77 -48 -88 -93 -112 -45 -23 -62 -26 -152 -26 -89 0 -108 3 -152 25 -56
29 -151 120 -151 146 0 9 -7 22 -16 30 -19 15 -12 82 14 139 l15 35 7 -42 c3
-23 14 -51 23 -61z m4007 92 l32 -7 -58 -23 c-31 -13 -63 -24 -71 -24 -7 0
-13 -4 -13 -9 0 -5 -12 -14 -27 -20 -16 -6 -35 -15 -43 -20 -8 -5 -22 -12 -30
-15 -8 -3 -22 -10 -30 -15 -8 -5 -40 -21 -70 -36 -30 -14 -80 -41 -112 -58
-31 -18 -76 -43 -100 -56 -109 -59 -456 -304 -530 -374 -7 -7 -47 -41 -88 -76
-175 -151 -376 -372 -546 -601 -74 -100 -184 -264 -196 -291 -3 -8 -24 -44
-45 -80 -130 -211 -283 -578 -365 -869 -166 -591 -186 -1185 -61 -1790 9 -41
21 -95 28 -120 7 -25 21 -74 30 -110 80 -293 223 -635 366 -877 27 -46 49 -86
49 -89 0 -9 163 -249 171 -252 5 -2 9 -8 9 -14 0 -9 37 -59 115 -157 156 -194
348 -392 512 -528 34 -28 72 -61 85 -73 13 -12 41 -34 63 -48 22 -14 45 -30
51 -36 6 -6 22 -18 34 -26 12 -8 50 -36 84 -61 33 -25 82 -58 109 -73 26 -15
47 -32 47 -37 0 -5 6 -9 14 -9 20 0 87 -40 82 -49 -3 -4 7 -8 22 -9 14 -1 28
-6 32 -11 3 -6 17 -15 30 -21 68 -31 89 -47 78 -58 -17 -17 -51 -15 -45 2 3 8
3 17 0 20 -9 8 -33 -21 -33 -41 0 -15 -2 -15 -9 -3 -6 8 -7 18 -4 23 3 5 -8 6
-26 2 -26 -6 -30 -4 -25 10 5 11 2 16 -7 15 -27 -4 -48 0 -61 13 -15 13 -38
27 -111 66 -103 55 -124 67 -170 99 -26 17 -68 46 -94 64 -52 34 -201 145
-219 163 -6 5 -42 37 -80 69 -72 63 -321 309 -390 386 -201 226 -386 502 -523
776 -123 248 -186 409 -276 714 -85 285 -135 674 -135 1055 0 641 128 1199
400 1745 62 125 92 182 100 190 3 3 16 25 29 50 56 106 223 344 350 500 92
114 390 411 506 505 39 31 79 64 90 73 27 23 149 110 205 147 62 41 68 44 151
94 41 24 85 51 99 61 14 9 84 44 155 79 72 34 143 68 158 76 16 8 36 15 45 15
9 0 30 9 46 19 16 11 34 17 41 15 6 -3 18 2 25 11 13 16 90 21 150 9z m4473
-52 c32 -33 34 -42 8 -42 -10 0 -62 -47 -123 -112 -58 -62 -128 -138 -157
-168 -28 -30 -54 -65 -57 -77 -3 -13 -8 -23 -11 -23 -8 0 -73 55 -73 62 0 3
52 59 115 125 64 65 144 151 178 191 34 39 69 72 77 72 9 0 28 -13 43 -28z
m119 -124 c13 -20 26 -38 30 -38 3 0 9 -18 13 -40 10 -57 -10 -104 -59 -145
-36 -29 -51 -35 -91 -35 -51 0 -107 27 -125 60 -9 16 -4 17 58 13 66 -5 68 -4
110 32 40 35 42 39 42 95 0 37 -5 62 -14 69 -8 6 -16 20 -19 31 -8 30 27 4 55
-42z m-6298 -212 c91 -93 166 -174 166 -180 0 -7 -11 -23 -24 -35 l-25 -23
-62 68 c-34 38 -118 124 -186 192 -68 68 -123 126 -123 130 0 3 15 21 33 40
l32 33 12 -28 c6 -16 86 -104 177 -197z m5446 214 c0 -5 -4 -10 -9 -10 -6 0
-13 5 -16 10 -3 6 1 10 9 10 9 0 16 -4 16 -10z m-4930 -120 c0 -5 -7 -10 -16
-10 -8 0 -12 5 -9 10 3 6 10 10 16 10 5 0 9 -4 9 -10z m-930 -153 c0 -7 -16
-19 -35 -25 -18 -7 -45 -27 -60 -43 -16 -19 -25 -25 -25 -15 0 24 72 96 98 96
12 0 22 -6 22 -13z m-1960 -102 c7 -8 19 -15 27 -15 9 0 51 -35 94 -77 72 -69
79 -80 79 -115 0 -25 5 -41 15 -44 8 -4 15 -16 15 -29 0 -12 -7 -28 -15 -35
-9 -7 -15 -29 -15 -52 0 -51 -12 -73 -74 -130 -47 -44 -55 -48 -102 -48 -48 0
-55 3 -88 40 -45 50 -48 91 -9 132 15 15 32 28 38 28 16 0 52 -40 64 -72 17
-46 52 -37 79 20 27 57 31 162 7 182 -8 7 -15 20 -15 30 0 21 -78 100 -100
101 -33 1 -52 8 -69 23 -22 20 -35 20 -67 0 -17 -11 -36 -15 -61 -11 -52 9
-58 20 -28 56 26 31 28 31 120 31 70 0 96 -4 105 -15z m1833 -46 c8 -64 31
-81 97 -76 56 5 157 27 221 47 31 11 41 9 77 -9 73 -37 119 -142 79 -183 -7
-7 -19 -26 -26 -43 -12 -24 -15 -27 -19 -12 -2 10 4 27 13 37 21 23 14 79 -13
103 -42 38 -88 37 -227 -2 -22 -6 -69 -11 -104 -11 -60 0 -65 2 -97 37 -29 32
-34 44 -34 88 0 49 5 65 20 65 4 0 10 -18 13 -41z m9221 16 c11 -8 30 -15 42
-15 37 0 115 -47 172 -103 28 -28 52 -56 52 -61 0 -14 40 -95 51 -102 5 -3 9
-20 9 -37 0 -18 9 -45 20 -62 19 -28 20 -47 20 -340 0 -292 -2 -311 -20 -335
-16 -20 -20 -41 -20 -105 0 -54 -5 -86 -15 -99 -10 -13 -15 -43 -15 -82 0 -42
-5 -67 -15 -78 -9 -9 -15 -33 -15 -63 0 -30 -7 -58 -17 -73 -10 -13 -17 -45
-18 -71 -1 -29 -7 -53 -18 -63 -13 -13 -17 -35 -17 -85 0 -49 -4 -72 -15 -81
-11 -9 -15 -32 -15 -79 -1 -42 -6 -73 -15 -85 -9 -12 -15 -43 -15 -80 0 -42
-5 -65 -17 -78 -13 -15 -16 -39 -16 -133 1 -98 -2 -119 -18 -139 -27 -35 -26
-127 2 -173 14 -22 19 -42 15 -58 -4 -17 2 -44 19 -79 29 -61 34 -66 99 -101
63 -33 129 -33 192 0 63 34 67 38 98 96 31 61 33 103 6 144 -11 17 -20 37 -20
46 0 10 -12 20 -27 24 -16 3 -36 14 -45 22 -16 15 -22 14 -68 -8 -27 -13 -50
-26 -50 -29 0 -3 16 -14 37 -25 20 -11 43 -30 51 -43 14 -21 12 -25 -31 -67
l-45 -46 -43 23 c-66 34 -79 51 -79 106 0 45 3 51 59 106 l59 58 87 -1 88 -1
68 -65 68 -65 45 22 c45 22 46 22 83 4 21 -10 51 -20 67 -22 20 -3 53 -27 100
-71 101 -95 96 -86 96 -185 0 -74 -3 -90 -20 -106 -11 -10 -30 -38 -43 -63
l-24 -44 24 -45 c13 -24 32 -52 41 -61 14 -13 19 -34 20 -93 2 -70 0 -78 -23
-98 -14 -12 -25 -28 -25 -36 0 -7 -25 -40 -55 -71 -45 -48 -63 -59 -96 -64
-22 -3 -49 -13 -60 -23 -19 -17 -21 -16 -60 5 -52 30 -71 24 -142 -44 -66 -64
-90 -75 -155 -74 -69 1 -85 9 -146 67 -53 51 -56 56 -56 102 0 39 5 54 25 75
14 14 31 26 38 26 59 7 75 4 104 -18 56 -41 53 -113 -5 -113 -15 0 -33 -4 -41
-9 -16 -10 -6 -31 15 -31 8 0 25 -7 38 -15 21 -14 28 -13 85 15 72 36 81 53
81 146 0 59 -3 67 -35 102 -48 54 -125 92 -185 92 -70 0 -180 -60 -180 -98 0
-9 -8 -24 -17 -35 -14 -15 -17 -33 -15 -86 2 -46 -2 -78 -14 -104 -16 -34 -16
-38 -1 -55 13 -15 16 -41 15 -145 -1 -105 2 -130 15 -145 12 -13 17 -37 17
-84 0 -46 4 -69 15 -78 11 -9 15 -32 15 -79 0 -44 5 -74 15 -87 8 -10 15 -39
15 -63 0 -27 8 -57 21 -78 15 -24 20 -44 16 -68 -4 -25 0 -40 14 -56 13 -15
19 -37 19 -69 0 -25 7 -55 15 -66 9 -12 14 -43 15 -83 0 -45 5 -70 16 -82 12
-13 16 -36 15 -80 -1 -46 4 -67 19 -89 17 -23 20 -44 20 -121 0 -70 4 -97 16
-110 13 -14 15 -50 15 -233 0 -187 -3 -219 -18 -242 -9 -15 -18 -45 -19 -66
-1 -23 -11 -53 -23 -69 -12 -15 -21 -37 -21 -47 0 -26 -200 -232 -225 -232
-11 -1 -38 -12 -60 -25 -51 -32 -128 -34 -165 -5 -14 11 -32 20 -41 20 -9 0
-22 7 -29 15 -7 8 -18 15 -25 15 -20 0 -65 40 -65 59 0 9 -16 32 -35 51 l-35
34 0 102 c0 86 3 105 20 127 11 14 20 31 20 39 0 7 18 30 40 51 37 35 44 37
102 37 86 0 108 -21 108 -102 0 -46 -4 -62 -21 -79 l-21 -21 -24 23 c-15 14
-24 34 -24 53 0 40 -16 67 -28 48 -5 -7 -22 -16 -38 -21 -25 -6 -29 -13 -32
-46 -2 -21 -12 -50 -23 -63 -24 -32 -24 -63 1 -95 11 -14 20 -31 20 -38 0 -8
26 -39 57 -71 l57 -58 121 0 120 0 73 70 c51 51 72 78 72 96 0 13 7 27 15 30
8 4 15 16 15 28 0 11 7 30 15 40 10 13 15 44 15 94 0 51 5 83 17 103 16 26 16
29 0 47 -21 23 -22 60 -1 83 14 16 14 20 0 48 -12 23 -16 63 -16 174 0 114 -3
147 -15 157 -9 8 -15 36 -17 83 -3 73 -21 102 -34 52 -3 -14 -19 -51 -35 -82
-16 -31 -29 -61 -29 -66 0 -17 -104 -116 -129 -122 -14 -4 -40 -20 -58 -36
-29 -25 -42 -29 -91 -29 -35 0 -66 -6 -79 -15 -18 -13 -25 -13 -48 -1 -29 15
-54 12 -56 -8 -1 -6 0 -65 1 -131 2 -111 0 -122 -19 -139 -12 -11 -21 -28 -21
-38 0 -10 -27 -46 -60 -78 l-59 -60 -74 0 c-60 0 -83 5 -127 28 -46 23 -59 36
-82 82 -23 45 -28 67 -28 131 l0 77 43 41 c36 36 48 41 88 41 40 0 51 -5 87
-40 35 -32 42 -46 42 -76 0 -50 -32 -84 -78 -84 -39 0 -72 23 -72 50 0 9 11
27 25 40 26 25 25 40 -5 40 -20 0 -70 -53 -70 -75 0 -23 53 -119 84 -153 37
-40 75 -42 144 -7 43 22 55 35 81 87 28 56 31 70 31 158 0 82 -3 101 -20 123
-11 14 -20 40 -20 60 0 19 -7 40 -15 47 -8 7 -15 25 -15 41 0 15 -9 43 -19 61
-24 40 -23 124 2 162 9 14 17 40 17 57 0 35 12 47 82 84 36 19 63 25 111 25
60 0 64 -2 100 -39 20 -22 37 -49 37 -60 0 -12 4 -21 9 -21 5 0 15 -16 21 -35
10 -31 9 -41 -16 -90 l-28 -55 -48 0 c-54 0 -98 29 -98 64 0 24 38 66 60 66
19 0 40 19 40 37 0 27 -50 63 -89 63 -32 0 -45 -7 -75 -40 -35 -38 -40 -50
-37 -77 1 -7 -6 -24 -15 -38 -15 -23 -15 -27 0 -50 9 -13 16 -37 16 -53 0 -22
13 -41 54 -81 49 -46 60 -51 103 -53 105 -3 143 16 249 124 85 87 124 149 124
197 0 16 7 34 15 41 12 10 15 38 15 135 0 97 -3 125 -15 135 -9 8 -15 30 -15
59 0 26 -7 56 -15 67 -8 10 -15 33 -15 51 0 17 -4 35 -10 38 -18 11 -51 -16
-57 -46 -3 -17 -13 -33 -22 -36 -9 -3 -46 -20 -84 -39 -37 -19 -74 -34 -81
-34 -29 0 -116 53 -116 70 0 10 -7 23 -15 30 -20 17 -20 109 0 136 8 10 15 26
15 36 0 24 57 68 88 68 30 0 112 -77 112 -104 0 -8 -11 -27 -25 -42 -24 -26
-28 -27 -60 -15 -44 16 -56 8 -48 -32 8 -40 18 -47 70 -47 34 0 48 6 80 37 67
64 83 111 83 239 0 87 -3 114 -15 124 -11 9 -15 35 -15 108 0 78 -4 100 -21
128 -19 31 -20 46 -17 193 3 134 6 162 21 178 9 11 17 34 17 52 0 26 12 43 72
101 58 57 77 70 104 70 17 0 37 7 44 15 22 26 76 29 113 6 19 -12 45 -21 58
-21 13 0 33 -7 43 -15 11 -8 27 -15 35 -15 21 0 61 -40 61 -61 0 -9 7 -22 15
-29 8 -7 15 -29 15 -50 0 -21 7 -43 15 -50 8 -7 15 -19 15 -26 0 -8 9 -23 20
-34 31 -31 97 -27 169 10 52 27 63 38 89 89 40 81 36 127 -18 181 -43 43 -60
49 -80 25 -11 -13 -9 -21 8 -45 29 -39 28 -53 -9 -84 -62 -52 -139 -17 -139
63 0 22 3 41 8 43 4 2 19 26 33 53 l26 50 -24 45 c-12 25 -28 51 -35 59 -21
25 -13 79 17 106 36 35 83 33 118 -3 32 -34 34 -52 7 -75 -23 -20 -26 -40 -6
-56 18 -15 45 -4 85 37 40 41 47 95 19 152 -10 19 -18 39 -18 45 0 6 -18 28
-40 50 -34 33 -47 39 -94 43 -87 7 -123 -3 -131 -38 -3 -16 -13 -34 -21 -41
-8 -6 -14 -26 -14 -44 0 -26 -12 -45 -71 -104 -49 -49 -78 -71 -95 -71 -13 0
-41 -9 -61 -20 -45 -24 -59 -25 -98 -4 -16 9 -45 18 -64 21 -27 3 -49 19 -103
76 -47 49 -68 79 -68 97 0 14 -9 39 -20 55 -18 27 -20 47 -20 220 0 173 2 192
20 215 16 20 20 41 20 106 0 60 4 85 15 94 11 9 15 33 15 90 0 72 -3 85 -42
159 -29 58 -48 83 -64 87 -13 3 -28 12 -35 20 -19 23 -73 17 -99 -11 -27 -29
-35 -100 -10 -100 8 0 17 11 20 25 5 20 13 26 43 28 32 3 38 0 46 -21 6 -14
15 -28 20 -32 21 -12 11 -38 -29 -77 -53 -50 -78 -49 -135 3 l-45 42 0 72 c0
51 4 76 14 85 8 6 16 21 18 33 2 12 12 23 23 26 11 2 31 12 44 22 13 11 31 19
41 19 36 0 139 -62 184 -111 26 -28 52 -49 59 -46 7 2 13 29 15 72 2 39 9 77
17 89 8 11 15 42 15 68 0 28 6 52 15 62 9 9 15 33 15 64 0 32 -5 54 -15 62 -9
8 -15 30 -15 59 0 60 -63 188 -122 249 -53 53 -194 125 -247 124 -42 0 -120
-33 -145 -61 -10 -11 -18 -33 -18 -48 0 -15 -9 -40 -19 -55 -26 -36 -24 -88 6
-145 40 -75 51 -83 111 -83 52 0 54 1 71 38 24 53 23 56 -22 62 -38 5 -40 7
-43 44 -6 75 79 116 135 64 21 -19 23 -30 23 -111 l0 -89 -39 -39 -39 -39 -84
0 -84 0 -58 59 -58 59 1 130 c2 124 3 133 31 186 30 55 30 57 30 220 l0 165
-32 31 c-18 18 -47 38 -65 46 -17 7 -34 18 -38 24 -8 13 -52 13 -60 -1 -4 -5
-18 -14 -31 -19 -13 -5 -29 -20 -35 -32 -5 -13 -16 -34 -25 -48 -19 -34 -15
-129 7 -143 9 -6 24 -7 33 -4 15 6 15 9 1 31 -9 14 -15 39 -13 58 l3 33 60 0
60 0 3 -72 3 -73 -42 -40 c-32 -30 -50 -40 -75 -40 -42 0 -96 46 -118 99 -8
22 -20 42 -26 46 -17 11 -11 82 12 127 11 24 46 69 77 101 l55 57 77 0 c66 0
84 -4 133 -30 74 -40 100 -26 56 30 -27 34 -27 104 0 137 11 14 20 38 20 54 0
42 142 179 186 179 17 0 37 7 44 15 16 20 108 20 134 0z m-1854 -214 c0 -16
-24 -65 -86 -176 -25 -44 -56 -100 -104 -191 -18 -32 -36 -63 -40 -69 -4 -5
-11 -25 -15 -42 -9 -44 -29 -41 -65 9 -35 48 -37 58 -12 65 10 2 33 30 52 60
33 55 33 57 17 86 -20 35 -22 59 -2 34 22 -30 46 -16 86 48 57 89 69 118 53
128 -8 4 -22 4 -32 -2 -9 -5 -46 -15 -81 -21 -59 -11 -110 -35 -111 -52 0 -5
7 -8 15 -8 8 0 15 -7 15 -15 0 -21 -4 -19 -39 16 -22 22 -36 29 -49 24 -9 -5
-36 -13 -59 -19 -24 -7 -48 -17 -55 -24 -19 -19 -34 -14 -47 14 -15 33 -9 41
36 47 21 3 72 12 113 20 41 9 111 22 155 31 44 8 96 20 115 26 19 5 49 10 67
10 17 0 35 5 38 10 11 17 35 11 35 -9z m-7550 -45 c9 -12 6 -16 -24 -21 -19
-4 -37 -13 -40 -21 -6 -16 -26 -19 -26 -5 0 17 45 61 61 61 9 0 22 -6 29 -14z
m583 -83 c-53 -52 -102 -66 -135 -36 -29 26 -22 32 38 32 41 -1 63 4 83 19 30
23 41 12 14 -15z m-681 -8 c-2 -14 -11 -25 -18 -25 -17 0 -17 1 -4 35 12 32
29 25 22 -10z m-1158 16 c4 -5 25 -12 48 -16 32 -6 53 -20 99 -67 l59 -59 0
-107 c0 -101 -1 -109 -25 -135 -24 -25 -32 -27 -100 -27 -68 0 -75 2 -94 26
-12 15 -21 35 -21 46 0 10 -7 21 -15 24 -26 10 -16 49 23 87 l38 37 42 -21
c51 -25 53 -44 11 -89 -28 -29 -30 -34 -15 -42 25 -14 55 0 77 35 24 40 24 81
2 115 -10 15 -23 36 -29 47 -12 21 -88 65 -112 65 -26 0 -122 -52 -137 -74 -8
-11 -15 -41 -15 -67 0 -29 -6 -51 -15 -59 -11 -9 -15 -33 -15 -85 0 -52 4 -76
15 -85 9 -8 15 -30 15 -59 0 -29 7 -57 20 -76 11 -16 20 -38 20 -48 0 -10 7
-20 15 -23 12 -5 15 -25 15 -89 0 -46 -4 -87 -10 -90 -5 -3 -18 -25 -28 -48
-11 -23 -42 -63 -70 -89 -49 -46 -53 -48 -112 -48 -58 0 -62 2 -105 45 -25 24
-45 53 -45 64 0 10 -7 24 -15 31 -8 7 -15 24 -15 39 0 38 42 121 61 121 9 0
22 7 29 15 17 21 21 20 63 -20 45 -42 48 -75 11 -104 -15 -12 -32 -21 -39 -21
-7 0 -18 -6 -24 -14 -15 -18 2 -56 24 -56 9 0 24 -5 34 -12 22 -14 68 2 112
40 28 23 29 26 29 127 0 79 -3 105 -15 115 -8 7 -15 19 -15 27 0 8 -13 28 -29
44 -28 28 -34 29 -115 29 -46 0 -87 -4 -91 -9 -3 -5 -36 -24 -73 -42 -66 -31
-132 -83 -132 -103 0 -6 -23 -55 -50 -109 l-50 -98 0 -127 c1 -96 4 -132 15
-146 8 -11 15 -41 15 -66 0 -25 5 -51 12 -58 6 -6 14 -30 17 -53 7 -52 25 -60
45 -20 9 16 26 41 38 54 32 33 123 77 162 77 45 0 99 -44 130 -105 30 -58 32
-78 11 -95 -8 -7 -15 -19 -15 -27 0 -16 -53 -82 -77 -96 -10 -6 -33 0 -64 14
l-49 24 0 56 c0 40 4 59 14 62 17 7 56 -2 73 -16 21 -16 43 0 43 31 0 37 -35
82 -64 82 -42 0 -136 -59 -136 -85 0 -7 -9 -24 -20 -38 -11 -14 -20 -40 -20
-58 0 -18 -7 -41 -17 -51 -21 -23 -21 -73 0 -96 13 -15 17 -39 17 -116 0 -83
3 -102 20 -123 18 -24 20 -41 20 -227 0 -183 -2 -204 -20 -234 -11 -18 -20
-45 -20 -60 0 -20 -15 -43 -58 -85 -32 -31 -65 -57 -74 -57 -8 0 -21 -7 -28
-15 -9 -11 -34 -15 -101 -15 -48 0 -90 4 -94 9 -6 10 -108 61 -121 61 -14 0
-54 43 -54 59 0 9 -7 25 -15 35 -9 12 -15 42 -15 73 0 51 -1 53 -35 67 -19 8
-35 19 -35 24 0 5 -10 13 -23 17 -21 6 -21 7 8 20 17 8 47 17 68 21 27 5 46
17 63 39 14 18 57 49 99 71 l74 38 44 -22 c24 -12 47 -22 51 -22 4 0 25 -17
47 -37 38 -36 39 -39 39 -103 0 -57 -3 -70 -24 -89 -45 -42 -146 -33 -146 13
0 8 -7 19 -15 26 -32 27 -3 76 58 99 46 18 21 31 -59 31 l-74 0 -40 -42 c-38
-41 -40 -46 -40 -106 0 -63 0 -64 57 -123 31 -32 61 -59 67 -59 6 0 29 -9 50
-21 41 -22 85 -19 107 7 6 8 19 14 29 14 9 0 42 27 73 59 47 49 57 66 57 94 0
19 7 40 15 47 22 18 22 267 0 296 -10 13 -14 46 -15 114 0 75 -4 101 -18 120
-12 18 -17 44 -17 91 0 49 -5 72 -17 86 -14 15 -16 30 -11 75 4 42 2 64 -9 80
-8 13 -17 53 -20 91 -3 37 -10 73 -16 80 -5 6 -12 35 -16 62 -3 28 -13 68 -21
90 -8 22 -14 59 -15 81 0 23 -7 55 -15 70 -8 16 -15 56 -15 89 -1 33 -7 71
-15 85 -10 18 -14 59 -15 141 0 70 -5 132 -13 155 -27 77 16 334 50 300 4 -4
9 -117 11 -251 3 -196 6 -246 18 -256 9 -8 14 -33 14 -78 0 -36 4 -72 9 -80
14 -23 31 -2 31 38 0 22 6 44 15 51 8 7 15 21 15 30 0 26 157 176 220 211 29
16 65 29 80 29 15 0 33 7 40 15 17 20 103 20 120 0 8 -10 17 -12 28 -6 13 7
15 30 13 139 -2 85 1 132 8 137 6 3 20 23 30 43 11 20 40 59 64 85 35 37 54
49 84 53 21 3 42 9 47 14 12 12 23 13 30 1z m8526 -67 c0 -8 -4 -12 -10 -9 -5
3 -10 13 -10 21 0 8 5 12 10 9 6 -3 10 -13 10 -21z m-7386 -24 c7 -21 24 -41
44 -53 31 -18 34 -18 85 -2 65 22 123 43 165 61 84 36 171 -2 196 -85 18 -61
10 -79 -18 -39 -11 18 -35 40 -53 50 -30 18 -34 18 -90 2 -32 -9 -65 -20 -73
-25 -8 -4 -44 -17 -78 -29 -67 -22 -119 -20 -156 6 -31 21 -56 72 -56 115 0
49 18 48 34 -1z m476 -205 c0 -14 -4 -25 -10 -25 -11 0 -14 33 -3 43 11 11 13
8 13 -18z m7499 -20 c11 -20 24 -47 27 -60 3 -13 12 -26 20 -29 8 -3 14 -16
14 -29 0 -14 7 -30 15 -37 11 -9 15 -32 15 -78 0 -61 -2 -66 -36 -98 -35 -34
-56 -39 -129 -34 -16 1 -42 8 -57 16 -15 8 -29 14 -32 14 -3 0 -23 -39 -46
-87 -23 -49 -45 -95 -49 -103 -5 -9 -12 -30 -16 -48 -9 -44 -22 -40 -35 10
-15 55 -5 119 29 176 15 26 38 70 51 97 13 28 25 52 26 54 2 2 19 -10 39 -28
50 -43 77 -48 135 -21 33 15 52 32 64 56 18 39 21 80 6 89 -5 3 -10 15 -10 25
0 10 -10 30 -22 43 l-22 25 -116 -61 c-63 -33 -142 -75 -175 -93 -33 -19 -71
-38 -85 -44 -14 -6 -32 -20 -41 -31 -15 -20 -16 -20 -37 -2 -11 10 -24 29 -27
43 -5 23 1 28 57 54 35 16 92 46 128 66 36 21 103 57 150 81 47 23 89 49 93
56 15 24 45 14 66 -22z m-8153 1 c3 -8 -4 -25 -16 -38 -12 -13 -27 -34 -32
-48 -7 -16 -12 -20 -15 -12 -3 8 -1 24 5 35 6 12 13 34 16 50 7 29 33 37 42
13z m602 -59 c-12 -13 -36 -31 -52 -41 -27 -17 -29 -17 -62 0 -19 10 -34 21
-34 25 0 4 27 9 60 11 45 3 66 10 83 26 12 12 23 18 25 12 2 -6 -7 -21 -20
-33z m1897 -17 c111 -4 201 -3 203 1 5 13 82 11 82 -2 0 -8 70 -9 251 -4 l251
8 -27 -42 c-15 -22 -32 -41 -36 -41 -5 0 -9 -8 -9 -19 0 -10 -7 -24 -15 -31
-8 -7 -15 -23 -15 -36 0 -12 -4 -26 -10 -29 -7 -4 -10 -596 -10 -1743 0 -1139
-4 -1751 -11 -1777 -5 -22 -14 -62 -18 -90 -15 -85 -87 -263 -133 -326 -15
-21 -28 -42 -28 -46 0 -5 -16 -26 -35 -47 -19 -22 -35 -42 -35 -46 0 -7 -99
-110 -106 -110 -3 0 -19 -14 -37 -30 -18 -17 -38 -28 -44 -25 -7 2 -13 -1 -13
-8 0 -26 -53 -45 -108 -40 -31 3 -48 9 -42 13 7 4 -9 5 -36 2 -27 -2 -50 -9
-52 -13 -2 -4 -15 -3 -30 3 -37 14 -284 10 -294 -5 -5 -7 -8 -2 -8 13 0 24 0
24 -30 -8 -16 -18 -30 -29 -30 -23 0 5 6 16 13 23 20 22 51 71 66 103 7 17 17
37 22 45 45 80 95 207 110 278 5 23 13 51 19 61 5 11 10 30 10 43 0 13 6 52
14 88 32 146 36 343 37 1980 0 1219 -3 1644 -11 1670 -20 59 -51 124 -70 145
-10 11 -21 35 -25 54 -7 32 -6 34 16 26 13 -4 114 -11 224 -15z m2755 -4 c25
-2 148 -5 273 -6 188 -3 231 -1 238 11 7 11 11 11 17 2 9 -15 43 -15 310 -7
l212 7 1 -69 c3 -156 -1 -314 -11 -379 -5 -39 -10 -103 -10 -143 0 -55 -4 -74
-15 -78 -26 -10 -45 16 -45 59 0 74 -41 199 -89 270 -24 38 -129 147 -140 147
-5 0 -11 7 -15 15 -3 8 -12 15 -19 15 -8 0 -22 9 -32 20 -10 11 -24 20 -32 20
-8 0 -21 7 -29 15 -9 8 -26 15 -38 15 -13 0 -29 7 -36 15 -7 8 -29 15 -50 15
-21 0 -43 7 -50 15 -10 12 -48 15 -225 15 -177 0 -215 -3 -225 -15 -7 -8 -27
-15 -44 -15 -17 0 -69 -19 -114 -42 -112 -57 -225 -162 -269 -249 -57 -114
-66 -150 -61 -246 4 -76 10 -97 39 -152 49 -93 161 -202 294 -289 44 -28 85
-55 90 -59 13 -10 64 -44 87 -58 29 -17 242 -154 253 -162 14 -11 96 -66 118
-78 9 -5 62 -39 117 -75 183 -119 238 -154 397 -257 87 -56 188 -130 224 -165
65 -62 140 -156 160 -200 5 -13 21 -43 34 -68 13 -25 24 -52 24 -60 1 -8 8
-28 16 -44 8 -15 15 -37 15 -47 0 -10 7 -44 15 -76 20 -77 20 -283 -1 -398
-15 -84 -48 -211 -64 -245 -4 -8 -15 -33 -25 -55 -19 -41 -81 -149 -100 -174
-5 -7 -53 -58 -105 -111 -118 -122 -209 -181 -405 -265 -49 -21 -155 -52 -230
-68 -192 -42 -249 -47 -494 -47 -258 0 -298 4 -566 59 -169 35 -349 106 -470
186 -108 71 -125 117 -125 335 0 215 37 407 106 543 8 16 14 33 14 39 0 23 42
68 64 68 23 0 23 -3 29 -122 10 -203 64 -352 187 -518 133 -178 342 -303 585
-351 33 -6 116 -13 185 -16 246 -10 442 48 595 174 58 48 165 189 165 219 0 6
7 24 15 40 20 40 29 175 17 256 -25 169 -151 319 -381 456 -43 26 -126 79
-183 117 -56 39 -106 71 -110 73 -10 5 -380 249 -393 259 -12 10 -153 103
-177 118 -10 5 -34 22 -55 36 -21 14 -83 56 -138 92 -222 146 -341 308 -421
572 -14 49 -18 95 -17 245 0 189 1 197 50 355 19 64 80 190 99 205 8 7 14 19
14 26 0 23 169 190 216 213 24 12 44 25 44 29 0 4 15 14 32 21 26 12 83 14
270 13 167 -1 238 2 238 10 0 7 17 8 53 4 28 -4 72 -8 97 -10z m-5336 -68 c-3
-13 -10 -28 -15 -34 -10 -12 -3 -19 46 -45 17 -9 56 -30 87 -48 50 -27 58 -29
72 -16 20 21 24 19 28 -11 3 -26 45 -56 147 -104 57 -26 71 -25 71 4 0 25 16
43 27 32 5 -5 -65 -156 -72 -156 -1 0 -15 12 -31 26 -38 34 -368 211 -426 228
-17 5 -17 7 0 43 9 21 22 41 28 45 7 4 15 19 18 33 4 14 11 25 17 25 6 0 8 -9
3 -22z m286 -3 c10 -12 8 -21 -12 -47 -13 -18 -28 -42 -33 -53 -8 -19 -9 -19
-13 4 -2 15 2 28 12 33 10 6 16 22 16 43 0 38 10 44 30 20z m245 -55 c17 -19
17 -22 -14 -85 -18 -36 -36 -65 -42 -65 -15 0 -10 40 6 46 11 5 15 22 15 65 0
63 7 70 35 39z m7953 -300 c-2 -8 -11 -16 -20 -18 -23 -4 -37 46 -17 59 16 10
41 -17 37 -41z m-8655 -20 c-20 -40 -33 -46 -33 -15 0 40 18 69 35 55 11 -9
11 -16 -2 -40z m8677 -56 c0 -13 -4 -24 -10 -24 -5 0 -10 14 -10 31 0 17 4 28
10 24 6 -3 10 -17 10 -31z m-8720 -29 c0 -14 -4 -25 -10 -25 -5 0 -10 11 -10
25 0 14 5 25 10 25 6 0 10 -11 10 -25z m290 -14 c0 -10 -22 -31 -32 -31 -9 0
-11 34 -2 43 7 7 34 -2 34 -12z m8472 -59 c27 -70 25 -77 -26 -78 -24 0 -54
-8 -67 -17 -13 -10 -33 -17 -44 -17 -12 0 -25 -4 -30 -9 -6 -5 -46 -21 -90
-36 -44 -15 -84 -31 -90 -35 -5 -4 -23 -10 -40 -14 -16 -4 -44 -18 -62 -32
-17 -13 -34 -24 -36 -24 -8 0 -39 102 -33 107 3 3 21 7 41 8 19 1 54 10 77 20
44 18 50 20 208 80 139 52 140 52 150 81 13 32 19 27 42 -34z m-8787 -3 c7
-21 24 -30 159 -84 36 -14 41 -14 57 1 17 16 19 15 29 -10 5 -14 22 -31 37
-38 16 -6 43 -17 61 -25 18 -8 54 -19 81 -26 48 -11 49 -12 44 -42 -12 -63
-17 -65 -75 -36 -74 36 -136 61 -151 61 -7 0 -17 4 -22 8 -6 4 -37 18 -70 31
-33 13 -75 30 -94 38 -19 8 -51 18 -72 20 -45 6 -45 8 -22 74 19 53 28 60 38
28z m275 -6 c0 -10 -4 -24 -9 -32 -12 -19 -24 3 -16 29 8 25 25 26 25 3z
m8560 -129 c0 -13 -4 -24 -10 -24 -5 0 -10 14 -10 31 0 17 4 28 10 24 6 -3 10
-17 10 -31z m38 -76 c11 -39 7 -48 -19 -48 -13 0 -19 7 -19 24 0 59 25 74 38
24z m-8668 -159 c79 -41 152 -153 137 -210 -3 -11 -1 -22 4 -25 5 -3 9 -13 9
-22 0 -10 -9 -4 -25 18 -14 19 -25 39 -25 45 0 20 -81 93 -129 117 -31 15 -70
23 -122 26 -84 4 -133 -13 -193 -68 -28 -27 -46 -31 -46 -9 0 13 77 95 113
121 67 48 193 51 277 7z m8745 -106 c6 -33 6 -33 -30 -33 -21 0 -58 -7 -84
-14 -53 -17 -129 -38 -221 -61 -36 -9 -88 -25 -115 -36 -64 -24 -74 -24 -80 4
-15 69 -11 77 40 77 25 0 61 6 79 14 18 7 53 17 77 21 24 4 49 11 54 15 6 4
31 11 57 14 26 4 50 11 53 16 3 4 27 11 54 15 30 4 57 15 67 26 18 20 18 20
30 -3 6 -13 15 -38 19 -55z m-9140 -121 c-9 -76 6 -128 51 -181 56 -65 122
-93 219 -94 91 -1 134 14 187 68 18 19 36 31 40 29 4 -3 5 1 3 9 -3 7 -2 24 4
38 8 22 10 22 17 5 5 -12 -3 -37 -22 -73 -44 -86 -83 -119 -171 -149 -58 -20
-85 -20 -151 -1 -96 29 -139 64 -181 146 -19 38 -21 54 -17 145 2 55 5 104 5
109 1 4 6 7 12 7 7 0 9 -19 4 -58z m9182 -175 c39 -35 63 -98 63 -165 0 -54
-2 -62 -19 -62 -17 0 -18 7 -13 70 5 68 4 71 -27 100 -42 41 -83 40 -122 -2
-16 -18 -29 -36 -29 -40 0 -21 -85 -180 -108 -204 -63 -62 -149 -56 -209 15
-23 27 -31 71 -13 71 6 0 10 -5 10 -10 0 -24 50 -60 83 -60 48 0 75 31 135
152 50 103 89 152 127 161 36 8 100 -5 122 -26z m-416 -17 c17 0 9 -19 -11
-25 -28 -9 -60 -67 -60 -108 0 -20 -4 -38 -9 -42 -14 -8 -24 58 -16 101 7 42
49 88 71 80 9 -3 20 -6 25 -6z m-8331 -330 c0 -61 -49 -108 -194 -183 -68 -36
-86 -38 -86 -12 0 27 -36 75 -67 90 -84 40 -166 2 -179 -83 -5 -37 -9 -43 -15
-27 -27 71 10 157 84 194 46 23 49 23 90 7 55 -22 82 -45 94 -81 7 -22 15 -29
29 -27 20 4 134 73 193 117 42 30 51 31 51 5z m8839 -87 c0 -16 -4 -48 -8 -73
l-8 -45 -2 42 c0 23 -5 53 -10 66 -10 27 -6 37 16 37 8 0 13 -11 12 -27z m6
-193 c4 -16 4 -39 0 -50 -5 -17 -12 -19 -52 -13 -25 3 -88 1 -141 -5 -176 -21
-326 -29 -334 -18 -4 6 -8 27 -8 47 l0 36 239 8 c131 4 244 11 252 16 25 16
37 10 44 -21z m-9360 -10 c3 -5 36 -10 73 -10 37 0 112 -5 167 -11 55 -5 130
-12 166 -13 83 -4 92 -9 84 -49 -9 -41 -20 -53 -37 -40 -7 6 -60 13 -118 16
-58 4 -121 11 -140 17 -19 6 -81 10 -138 9 -57 -1 -105 1 -108 4 -3 3 0 23 6
46 10 39 31 53 45 31z m-1658 -32 c18 -17 23 -32 23 -72 0 -47 -4 -54 -47 -99
l-48 -48 31 -27 c45 -39 73 -92 67 -124 -6 -31 -77 -98 -103 -98 -25 0 -72 58
-68 84 2 11 16 27 31 34 39 19 32 46 -12 50 -54 5 -78 -5 -89 -38 -6 -16 -20
-39 -30 -51 l-20 -21 -6 29 c-8 35 15 104 44 133 14 14 19 27 14 38 -12 26
-17 102 -7 102 5 0 18 -7 29 -15 26 -18 90 -23 105 -8 7 7 2 20 -20 46 -37 41
-38 53 -9 84 28 30 83 31 115 1z m11037 -145 c7 -81 7 -83 -14 -83 -20 0 -22
4 -16 33 4 17 9 56 13 85 3 29 7 51 8 50 1 -2 6 -40 9 -85z m-9181 -134 c32
-21 64 -75 67 -114 7 -70 -12 -104 -25 -45 -10 46 -54 86 -103 95 -70 11 -128
-11 -145 -57 -12 -32 -27 -19 -27 23 0 35 6 48 39 80 36 37 42 39 100 39 46 0
69 -5 94 -21z m-1345 -54 c51 -26 112 -85 112 -109 0 -8 7 -19 15 -26 8 -7 15
-28 15 -47 0 -20 9 -46 20 -60 18 -23 20 -41 20 -153 0 -114 -2 -129 -20 -145
-18 -16 -20 -31 -20 -120 0 -79 -3 -105 -15 -115 -10 -9 -15 -32 -15 -77 0
-49 -5 -70 -21 -93 l-22 -28 22 -28 c11 -14 21 -37 21 -50 0 -40 50 -127 93
-162 48 -39 83 -38 122 4 29 32 30 37 9 58 -19 20 -29 20 -48 1 -19 -20 -29
-19 -49 3 -31 34 -32 75 -2 110 23 28 33 32 73 32 55 -1 78 -17 110 -80 25
-52 29 -102 7 -120 -8 -7 -15 -21 -15 -31 0 -10 -11 -30 -25 -44 -24 -23 -33
-25 -107 -25 l-82 0 -58 60 c-64 65 -98 77 -98 35 0 -14 -7 -28 -15 -31 -11
-4 -15 -21 -15 -59 0 -34 -5 -57 -15 -65 -12 -10 -15 -42 -15 -170 0 -128 3
-160 15 -170 8 -7 15 -18 15 -25 0 -37 57 -119 134 -193 73 -70 91 -82 120
-82 18 0 39 -7 46 -15 16 -20 84 -20 100 0 7 8 21 15 32 15 30 0 68 45 68 80
0 18 9 43 20 57 14 17 20 41 20 72 0 67 -7 82 -57 124 -37 30 -52 37 -89 37
-42 0 -45 -2 -65 -46 -18 -37 -19 -48 -9 -54 7 -4 19 -6 26 -3 24 9 54 -16 54
-46 0 -36 -35 -81 -63 -81 -12 0 -38 17 -59 37 -37 36 -38 39 -38 107 0 67 1
72 37 108 20 21 45 38 54 38 9 0 22 7 29 15 16 19 49 19 74 0 11 -8 35 -15 53
-15 37 0 83 -39 83 -70 0 -10 7 -23 15 -30 22 -18 22 -242 0 -260 -8 -7 -15
-20 -15 -30 0 -9 -9 -27 -20 -40 -18 -21 -20 -37 -20 -202 l0 -180 28 -30 c40
-44 71 -56 135 -54 56 1 61 4 103 48 38 41 44 53 44 90 0 61 -9 86 -32 94 -32
10 -42 -9 -23 -45 16 -33 13 -69 -9 -83 -13 -9 -68 -10 -90 -2 -9 3 -16 13
-16 22 0 8 -7 23 -15 32 -14 16 -13 22 10 68 30 59 86 112 120 112 35 0 88
-51 119 -114 30 -62 31 -69 11 -86 -8 -7 -15 -27 -16 -44 -1 -50 -50 -127
-100 -158 -37 -22 -56 -26 -114 -26 -97 0 -148 30 -191 116 -18 35 -38 70 -46
79 -8 11 -15 57 -18 137 l-5 121 -87 3 c-61 2 -90 7 -98 17 -7 8 -17 15 -23
15 -48 0 -217 134 -217 172 0 10 -13 29 -29 44 -16 14 -31 39 -35 55 -7 34
-15 36 -47 10 -22 -18 -24 -27 -24 -104 0 -68 -4 -89 -18 -105 -16 -18 -18
-44 -20 -267 -2 -225 -1 -250 15 -270 10 -13 18 -36 18 -53 0 -16 9 -39 20
-52 11 -13 20 -29 20 -37 0 -22 137 -145 192 -171 41 -19 62 -23 108 -20 36 3
64 10 74 21 10 9 25 17 34 17 25 0 92 71 92 97 0 13 7 26 15 29 12 5 15 24 15
83 0 76 0 77 -39 115 -39 38 -61 41 -61 7 0 -10 -11 -28 -24 -40 -31 -29 -66
-23 -90 15 -16 24 -16 27 1 52 10 15 20 36 23 47 3 11 15 21 27 23 12 2 27 10
33 18 16 18 54 18 70 -1 7 -8 19 -15 28 -15 24 0 62 -41 62 -66 0 -12 7 -24
15 -28 9 -3 15 -18 15 -38 0 -18 7 -42 15 -52 19 -25 19 -50 0 -66 -10 -8 -14
-28 -13 -57 1 -45 0 -47 -89 -134 l-90 -89 -94 0 c-107 1 -169 11 -194 31
-116 94 -168 170 -198 285 -25 93 -50 340 -43 408 4 34 12 122 17 196 17 225
25 294 37 323 7 16 12 48 12 72 0 24 5 47 10 50 5 3 10 34 10 68 0 34 6 74 14
88 7 14 16 43 21 65 4 21 12 42 18 46 6 4 13 41 15 82 3 48 9 80 18 87 9 7 14
31 14 64 0 35 5 57 15 65 10 8 15 30 15 65 0 35 5 57 15 65 11 9 15 34 15 94
0 65 4 86 20 106 18 23 20 42 20 253 l0 228 -57 60 c-31 32 -63 59 -71 59 -9
0 -23 6 -31 14 -32 28 -73 27 -131 -4 -30 -16 -67 -34 -82 -41 -16 -6 -28 -17
-28 -24 0 -7 -9 -24 -20 -38 -15 -19 -20 -40 -20 -89 0 -62 1 -65 43 -105 43
-43 95 -61 136 -48 28 9 27 18 -9 58 -39 45 -40 89 -4 122 43 40 83 34 133
-20 46 -50 52 -85 21 -125 -11 -14 -20 -32 -20 -40 0 -24 -39 -52 -81 -57 -21
-3 -44 -12 -50 -19 -15 -18 -43 -18 -58 0 -7 8 -28 17 -47 21 -43 8 -101 58
-121 103 -12 29 -16 31 -35 21 -39 -21 -168 10 -168 41 0 14 52 30 98 30 50 0
72 12 72 41 0 9 7 22 15 29 8 7 15 29 15 50 0 31 8 44 52 86 78 74 126 93 230
94 73 0 94 -4 136 -25z m-733 -166 c8 -23 1 -34 -14 -24 -13 8 -15 45 -2 45 5
0 13 -9 16 -21z m2385 -66 l0 -48 -62 0 c-149 -1 -434 -18 -445 -27 -21 -17
-33 2 -33 53 0 53 1 55 29 37 14 -9 52 -9 158 0 76 7 170 13 209 13 38 1 83 5
99 9 17 4 33 8 38 9 4 0 7 -20 7 -46z m-2330 -23 c0 -5 -2 -10 -4 -10 -3 0 -8
5 -11 10 -3 6 -1 10 4 10 6 0 11 -4 11 -10z m10204 -1925 c20 -31 20 -34 -2
-28 -23 6 -122 -89 -122 -117 0 -6 -7 -13 -15 -16 -33 -13 -14 -45 63 -105 42
-34 79 -64 82 -68 14 -17 173 -131 184 -131 7 0 17 5 24 12 6 6 15 9 18 5 10
-9 -114 -167 -131 -167 -3 0 -5 14 -5 30 0 19 -8 37 -22 49 -96 83 -302 251
-307 251 -6 0 -41 -39 -97 -105 -13 -16 -27 -41 -31 -55 -9 -37 -13 -41 -32
-30 -36 19 -31 38 26 97 87 90 233 273 285 356 33 53 57 60 82 22z m-7185
-246 c107 -40 203 -125 293 -259 53 -78 56 -102 23 -150 -15 -22 -30 -40 -32
-40 -3 0 -2 20 1 45 7 44 -18 145 -36 145 -5 0 -8 7 -8 15 0 23 -110 128 -161
153 -144 70 -329 -40 -329 -196 0 -110 109 -260 228 -312 50 -22 151 -27 170
-8 6 6 14 9 17 7 2 -3 -9 -20 -26 -37 -28 -29 -35 -31 -73 -26 -79 12 -147 53
-231 138 -101 102 -147 189 -153 288 -6 98 3 130 48 177 78 80 165 100 269 60z
m6706 -299 c24 -26 13 -47 -25 -48 -18 0 -40 -8 -49 -16 -10 -9 -22 -16 -28
-16 -15 0 -63 -79 -63 -104 0 -41 32 -59 92 -51 29 4 71 13 93 20 192 62 255
55 276 -32 14 -60 1 -119 -39 -171 -19 -26 -40 -49 -45 -51 -5 -2 -26 -18 -46
-35 -86 -75 -144 -84 -173 -26 -20 38 -10 62 17 40 19 -15 86 -15 116 0 47 26
109 92 115 125 13 70 -26 113 -87 94 -119 -37 -280 -61 -318 -47 -21 7 -61 71
-61 97 0 21 17 62 45 106 24 38 130 135 148 135 8 0 22 -9 32 -20z m1485 -246
c42 -22 57 -37 66 -62 5 -17 15 -37 22 -44 7 -7 12 -35 12 -63 0 -38 -5 -55
-20 -68 -11 -9 -20 -25 -20 -36 0 -10 -7 -24 -15 -31 -8 -7 -15 -19 -15 -28 0
-20 -39 -62 -58 -62 -8 0 -32 -16 -53 -35 -22 -19 -45 -35 -53 -35 -7 0 -19
-7 -26 -15 -7 -8 -20 -15 -30 -15 -10 0 -23 -6 -29 -13 -8 -11 -5 -19 14 -37
13 -12 35 -46 49 -75 24 -48 26 -62 26 -188 0 -75 -4 -138 -8 -141 -5 -3 -26
-38 -47 -78 -21 -40 -48 -83 -61 -95 -30 -28 -30 -41 1 -55 19 -9 29 -8 49 6
27 17 76 22 76 6 0 -21 -252 -130 -302 -130 -18 0 -42 -7 -52 -15 -11 -8 -32
-15 -46 -15 -14 0 -35 -7 -46 -15 -11 -8 -41 -15 -70 -15 -33 0 -56 -5 -64
-15 -7 -8 -22 -15 -34 -15 -11 0 -34 -7 -50 -15 -15 -8 -40 -15 -55 -15 -14
-1 -37 -7 -51 -15 -14 -8 -35 -14 -48 -15 -12 0 -41 -9 -63 -20 -22 -12 -44
-18 -50 -15 -5 4 -26 -3 -45 -14 -19 -12 -45 -21 -57 -21 -12 0 -31 -7 -41
-15 -11 -8 -30 -15 -43 -15 -25 0 -197 -83 -208 -100 -3 -5 -14 -10 -24 -10
-10 0 -24 -7 -31 -15 -7 -8 -21 -15 -32 -15 -10 0 -51 -31 -91 -70 -39 -38
-75 -70 -79 -70 -5 0 -8 -8 -8 -17 0 -10 -9 -29 -20 -43 -11 -14 -20 -31 -20
-37 0 -28 -20 -11 -20 17 0 17 3 30 8 30 9 0 52 92 52 111 0 20 77 89 99 89
10 0 21 7 25 15 3 8 15 15 27 15 11 0 36 16 54 35 24 24 40 33 56 30 13 -3 33
2 46 10 12 8 28 15 35 15 7 0 24 9 38 20 14 11 32 20 41 20 9 0 22 7 29 15 7
8 27 15 44 15 17 0 42 9 56 20 14 11 35 20 48 20 62 0 191 106 236 192 53 103
20 191 -72 192 -60 1 -66 -21 -18 -65 57 -52 40 -99 -35 -99 -57 0 -89 34 -89
93 0 40 5 49 45 86 44 40 46 41 119 41 67 0 78 -3 101 -25 24 -25 25 -31 25
-135 0 -85 -3 -112 -16 -124 -45 -45 28 -75 90 -37 18 12 47 21 63 21 17 0 36
7 43 15 8 10 30 15 61 15 39 0 55 6 82 30 19 17 41 30 49 30 19 0 122 107 143
149 9 19 28 46 41 60 15 16 24 38 24 57 0 17 7 37 15 44 12 10 15 37 15 120 0
83 -3 110 -15 120 -8 7 -15 18 -15 25 0 8 -12 27 -26 44 l-26 31 -121 0 -122
-1 -36 -33 c-19 -18 -41 -47 -48 -64 -7 -17 -19 -37 -27 -43 -22 -18 -17 -36
19 -75 51 -56 102 -77 136 -55 13 8 12 14 -4 44 -12 23 -16 43 -11 61 6 26 9
27 59 24 l52 -3 3 -54 c3 -51 1 -56 -35 -92 -38 -38 -39 -38 -117 -39 -68 0
-83 3 -103 22 -13 12 -23 26 -23 32 0 6 -9 22 -20 36 -15 19 -20 41 -20 88 l0
64 66 69 c38 39 81 73 100 79 19 7 34 16 34 21 0 5 36 9 80 9 60 0 89 5 116
19 20 11 42 17 49 14 23 -8 107 48 182 122 l71 70 -5 70 c-5 63 -9 74 -41 108
-32 33 -42 37 -84 37 -56 0 -155 -44 -164 -73 -8 -24 28 -62 50 -54 9 4 16 15
16 26 0 38 66 42 100 6 22 -23 22 -26 7 -43 -10 -10 -17 -24 -17 -30 0 -6 -22
-23 -50 -37 l-50 -25 -37 20 c-21 11 -41 20 -45 20 -5 0 -17 9 -28 20 -15 15
-20 33 -20 73 0 49 3 55 48 98 26 25 55 50 64 55 9 5 56 8 105 8 76 -2 96 -6
143 -30z m-9235 -12 c38 -20 75 -48 81 -60 6 -13 17 -29 23 -35 6 -6 11 -32
11 -58 0 -41 -4 -51 -32 -74 -29 -24 -38 -27 -94 -23 -77 5 -104 25 -104 78 0
76 63 92 85 22 10 -36 35 -48 65 -32 31 17 24 44 -25 89 -43 40 -47 41 -112
41 -66 0 -68 -1 -110 -42 -42 -42 -43 -43 -43 -111 l0 -68 51 -54 c56 -59 194
-135 246 -135 17 0 36 -7 43 -15 9 -11 34 -15 95 -15 61 0 86 -4 95 -15 7 -8
21 -15 30 -15 10 0 46 -27 79 -61 l61 -61 0 -88 c0 -86 -1 -91 -32 -127 -46
-53 -45 -53 -119 -53 -46 0 -70 4 -79 14 -6 8 -21 16 -33 18 -12 2 -23 12 -25
23 -2 11 -11 27 -19 37 -24 27 -13 79 22 99 39 23 37 23 63 -1 14 -14 22 -33
22 -55 0 -38 25 -75 51 -75 23 0 99 85 99 110 0 11 -12 42 -27 70 -20 36 -37
53 -60 61 -18 6 -33 15 -33 20 0 5 -11 9 -24 9 -13 0 -29 7 -36 15 -17 20
-123 21 -140 1 -6 -8 -21 -16 -32 -18 -12 -2 -24 -10 -28 -18 -4 -8 -15 -29
-24 -47 -9 -17 -16 -42 -16 -56 0 -13 -9 -36 -20 -50 -25 -31 -25 -38 -1 -69
15 -18 19 -39 19 -87 -1 -56 2 -65 29 -94 17 -18 34 -42 37 -54 9 -29 155
-173 176 -173 10 0 23 -7 30 -15 7 -8 20 -15 30 -15 10 0 23 -7 30 -15 8 -10
30 -15 62 -15 35 0 58 -6 75 -20 14 -11 40 -20 58 -20 18 0 38 -7 45 -15 15
-19 54 -20 68 -2 9 10 3 26 -23 66 -31 46 -35 61 -35 116 0 43 5 66 15 75 8 7
15 18 15 25 0 8 12 27 26 44 23 28 32 31 81 31 73 0 134 -35 162 -94 29 -60
27 -77 -19 -119 -47 -43 -58 -45 -88 -17 -33 31 -29 73 8 87 49 19 40 48 -21
68 l-51 17 -24 -28 c-20 -25 -23 -40 -24 -110 l0 -80 53 -56 c34 -37 77 -68
124 -92 39 -19 74 -40 78 -46 3 -5 21 -10 38 -10 18 0 41 -7 51 -15 11 -8 34
-15 52 -15 17 0 37 -6 43 -14 7 -8 23 -17 38 -21 14 -3 32 -13 40 -20 8 -8 32
-15 53 -15 24 0 40 -5 44 -15 3 -8 16 -15 28 -15 14 0 33 -13 47 -30 13 -17
31 -30 41 -30 10 0 50 -32 89 -71 61 -61 71 -77 71 -106 0 -19 8 -45 18 -58
10 -13 18 -34 16 -47 -1 -13 -3 -30 -3 -39 -1 -9 -9 -25 -19 -37 -11 -12 -18
-34 -17 -52 2 -26 -7 -38 -52 -77 -37 -32 -59 -44 -73 -40 -13 3 -20 0 -20 -9
0 -8 -9 -14 -20 -14 -11 0 -20 7 -20 16 0 8 4 13 9 10 4 -3 16 3 26 14 10 11
25 20 34 20 21 0 71 50 71 71 0 10 7 22 16 27 13 7 15 26 12 117 l-3 108 -69
63 c-37 35 -77 64 -87 64 -10 0 -21 5 -24 10 -3 6 -14 10 -24 10 -10 0 -26 9
-36 20 -10 11 -23 20 -29 20 -6 0 -42 16 -80 35 -37 19 -77 35 -88 35 -10 0
-48 16 -84 35 -35 19 -75 35 -87 35 -12 0 -31 7 -41 15 -11 8 -41 15 -66 15
-25 0 -55 7 -66 15 -10 8 -33 15 -50 15 -17 0 -41 9 -54 20 -13 11 -37 20 -54
20 -17 0 -40 7 -50 15 -11 8 -40 15 -65 15 -25 0 -55 7 -65 15 -11 8 -41 15
-67 15 -29 0 -51 6 -59 15 -7 8 -29 15 -50 15 -21 0 -43 7 -50 15 -7 8 -27 15
-46 15 -18 0 -39 6 -47 14 -8 8 -32 18 -53 22 -21 4 -48 13 -59 20 -11 8 -31
14 -45 14 -14 0 -38 9 -55 20 -16 11 -42 20 -56 20 -15 0 -32 7 -39 15 -7 8
-19 15 -27 15 -8 0 -27 8 -41 19 -15 10 -84 46 -154 81 -70 34 -134 71 -144
81 -9 10 -23 19 -30 19 -15 0 -98 100 -90 107 3 3 25 -9 50 -26 24 -17 49 -31
55 -31 6 0 28 -16 50 -35 21 -19 43 -35 48 -35 5 0 30 -11 54 -24 94 -52 145
-75 181 -81 21 -4 42 -13 49 -21 6 -8 20 -14 30 -14 10 0 20 -4 23 -9 11 -17
92 -51 122 -51 16 0 42 -7 58 -15 33 -18 62 -19 71 -4 4 5 -15 31 -42 56 -51
49 -93 122 -93 164 0 14 -9 34 -20 44 -18 16 -20 31 -20 127 0 95 3 113 20
135 11 14 20 32 20 40 0 8 14 28 30 43 27 26 29 31 18 49 -7 11 -29 27 -49 35
-21 9 -40 20 -44 26 -3 5 -14 10 -23 10 -10 0 -50 33 -90 73 -52 52 -72 80
-72 98 0 15 -9 38 -20 52 -24 30 -26 60 -5 77 8 7 15 27 15 45 0 46 69 115
114 115 17 0 40 7 50 15 31 23 75 16 151 -23z m1622 -17 c19 -8 41 -15 49 -15
43 0 254 -163 254 -197 0 -7 4 -13 8 -13 5 0 19 -23 33 -52 20 -42 24 -67 23
-134 0 -80 -2 -84 -38 -128 -48 -59 -109 -86 -190 -86 -60 1 -157 27 -179 49
-6 6 -17 11 -24 11 -14 0 -43 23 -129 103 -89 82 -136 204 -119 306 8 50 71
124 128 150 51 24 135 26 184 6z m5873 -273 c81 -101 129 -152 146 -156 14 -4
24 -12 21 -19 -4 -14 -117 -107 -129 -107 -4 0 -8 16 -8 35 0 28 -16 55 -82
142 -45 60 -87 114 -93 122 -35 47 -86 91 -104 91 -32 0 -26 13 22 47 23 17
53 41 67 53 l25 22 7 -40 c5 -31 34 -74 128 -190z m2165 159 c3 -6 36 -24 73
-41 37 -18 79 -43 94 -57 64 -61 98 -197 60 -249 -9 -13 -20 -24 -23 -24 -4 0
-10 32 -14 70 -6 61 -11 73 -32 88 -14 9 -32 30 -39 48 -22 52 -80 74 -195 74
l-95 0 -42 -40 c-23 -23 -42 -46 -42 -51 0 -6 -9 -24 -21 -40 -23 -32 -22 -64
1 -63 8 0 28 7 43 14 32 16 73 6 91 -22 8 -14 4 -24 -24 -53 -58 -60 -91 -57
-158 14 -33 35 -34 37 -27 101 4 36 13 72 20 80 7 8 15 24 17 35 1 10 13 22
25 25 12 3 36 18 54 34 19 17 47 31 68 33 20 2 43 10 51 18 16 17 105 21 115
6z m-10175 -46 c7 -8 27 -15 44 -15 34 0 106 -59 106 -87 0 -8 9 -26 20 -40
15 -19 20 -41 20 -86 0 -58 -2 -63 -42 -104 -49 -50 -74 -54 -117 -17 -24 19
-31 34 -31 60 0 32 2 34 35 34 19 0 44 -5 54 -12 42 -26 66 20 39 74 -6 13
-34 44 -62 70 l-51 47 -97 2 -97 2 -60 -53 c-35 -31 -66 -67 -75 -90 -8 -21
-20 -41 -26 -45 -5 -3 -10 -25 -11 -48 0 -23 -4 -50 -8 -61 -6 -15 -10 -10
-20 23 -22 75 -26 139 -8 159 8 9 19 29 22 44 8 32 77 98 103 98 10 0 23 5 29
11 5 5 25 18 44 28 45 24 171 28 189 6z m7622 -167 c15 -18 28 -36 28 -40 0
-12 -38 -10 -45 2 -10 16 -137 12 -159 -5 -11 -8 -26 -15 -33 -15 -14 0 -36
-17 -93 -70 -83 -78 -97 -172 -41 -277 37 -68 78 -102 152 -122 39 -11 53 -10
100 5 30 10 65 24 79 33 49 30 107 92 130 137 l23 45 -29 42 c-16 23 -40 46
-52 52 -21 9 -31 35 -13 35 5 0 32 16 61 35 52 35 74 37 67 7 -2 -10 8 -37 22
-61 23 -40 24 -47 12 -90 -7 -25 -15 -48 -19 -51 -4 -3 -20 -24 -36 -48 -59
-87 -208 -177 -319 -192 -113 -16 -182 4 -243 72 -135 151 -44 365 206 484
127 61 165 65 202 22z m-4235 -24 c-3 -3 -12 -4 -19 -1 -8 3 -5 6 6 6 11 1 17
-2 13 -5z m3313 -4 c0 -5 -2 -10 -4 -10 -3 0 -8 5 -11 10 -3 6 -1 10 4 10 6 0
11 -4 11 -10z m-3330 -26 c0 -2 -9 -4 -20 -4 -11 0 -20 4 -20 9 0 5 9 7 20 4
11 -3 20 -7 20 -9z m3290 -4 c0 -5 -7 -10 -16 -10 -8 0 -12 5 -9 10 3 6 10 10
16 10 5 0 9 -4 9 -10z m-3841 -52 c48 -17 152 -79 164 -99 7 -12 4 -24 -13
-47 -25 -34 -40 -28 -40 14 0 19 -23 49 -64 82 -22 18 -111 15 -130 -4 -18
-17 -22 -74 -6 -74 6 0 10 -5 10 -11 0 -6 19 -42 43 -81 23 -38 52 -86 64
-106 33 -55 31 -114 -6 -151 -16 -16 -46 -34 -66 -40 -38 -10 -91 -5 -101 10
-3 5 -16 9 -29 9 -13 0 -30 7 -39 15 -8 8 -18 15 -23 15 -5 0 -35 23 -66 51
-65 58 -73 90 -33 133 35 39 48 34 41 -16 -8 -57 17 -104 73 -141 54 -37 129
-42 163 -12 29 27 21 65 -32 151 -48 79 -99 186 -99 209 0 31 31 75 63 89 41
18 81 19 126 4z m448 -315 c7 -37 19 -97 27 -133 9 -36 22 -93 30 -128 21 -94
39 -109 86 -72 14 11 75 57 135 102 61 45 112 84 115 88 15 17 65 50 77 50 12
0 14 -8 10 -32 -4 -18 -11 -82 -16 -143 -6 -60 -16 -147 -22 -192 -11 -73 -10
-85 5 -109 28 -42 8 -49 -70 -23 -38 12 -70 23 -72 25 -2 1 4 16 12 33 9 16
16 47 16 68 0 21 8 75 17 120 9 45 14 86 9 90 -4 4 -23 -1 -41 -12 -49 -29
-237 -166 -257 -188 -28 -31 -51 -18 -61 33 -4 25 -11 52 -14 60 -8 18 -30
112 -47 200 -16 87 -33 89 -85 10 -23 -34 -41 -63 -41 -65 0 -2 -13 -24 -30
-48 -16 -25 -30 -54 -30 -66 0 -25 -6 -26 -54 -6 -41 17 -46 37 -13 60 23 16
42 42 182 249 79 116 89 127 103 112 9 -8 21 -46 29 -83z m3705 37 c62 -27
109 -77 131 -137 21 -60 21 -73 0 -141 -14 -43 -32 -69 -79 -116 -34 -34 -79
-69 -100 -79 -22 -11 -52 -25 -69 -33 -16 -8 -56 -19 -88 -24 -33 -5 -68 -12
-78 -15 -11 -4 -54 1 -95 11 -60 14 -85 26 -120 57 -81 71 -95 200 -34 299 47
75 173 164 242 172 13 1 30 6 37 10 51 32 179 30 253 -4z m3238 -104 c0 -17
-73 -80 -126 -108 -20 -11 -44 -26 -51 -34 -8 -8 -18 -12 -23 -9 -5 3 -11 1
-15 -5 -9 -14 -25 -13 -25 3 1 21 34 53 63 61 15 3 27 11 27 16 0 6 9 10 21
10 11 0 41 18 66 40 49 43 63 48 63 26z m-6107 -130 c30 -14 63 -19 200 -33
l57 -5 0 -39 c0 -22 -4 -39 -10 -39 -5 0 -10 5 -10 10 0 6 -12 16 -27 22 -16
7 -35 17 -43 24 -16 14 -148 22 -167 11 -6 -4 -13 -24 -16 -44 -3 -21 -10 -55
-15 -77 -6 -21 -8 -44 -6 -51 9 -22 56 -35 134 -38 l75 -2 -1 -38 c-2 -50 -10
-55 -34 -24 -13 17 -34 28 -63 32 -23 4 -54 13 -68 21 -24 12 -28 11 -48 -10
-14 -15 -25 -44 -31 -82 -4 -33 -11 -66 -15 -75 -8 -21 11 -35 58 -43 20 -4
37 -11 37 -16 0 -15 -93 -12 -140 5 -23 8 -54 15 -69 15 -14 0 -33 5 -41 10
-12 8 -11 11 8 16 29 8 61 70 73 138 11 67 34 164 49 211 7 20 10 55 7 76 l-5
39 40 0 c22 0 54 -6 71 -14z m1889 -41 c-2 -20 3 -68 13 -108 23 -102 43 -195
50 -241 4 -21 12 -47 18 -57 13 -20 61 -26 72 -9 3 6 20 10 37 10 63 0 163 63
173 110 10 45 25 36 25 -15 0 -58 -23 -95 -60 -95 -15 0 -44 -7 -63 -15 -20
-8 -56 -15 -80 -15 -24 0 -48 -5 -54 -11 -6 -6 -46 -17 -89 -25 -104 -18 -109
-18 -90 2 18 18 20 75 5 144 -5 25 -16 81 -24 125 -28 151 -33 166 -55 190
l-23 24 24 5 c26 6 71 12 104 15 18 1 20 -4 17 -34z m3953 -5 c-3 -5 -11 -10
-16 -10 -6 0 -7 5 -4 10 3 6 11 10 16 10 6 0 7 -4 4 -10z m-5290 -31 c72 -6
134 -14 139 -19 4 -4 1 -37 -7 -72 -22 -92 -30 -369 -12 -395 8 -11 11 -23 8
-27 -3 -3 -41 -6 -84 -6 -76 0 -104 10 -75 27 28 16 43 76 45 183 1 58 7 139
12 180 12 97 6 103 -106 98 -44 -2 -88 -7 -97 -12 -15 -7 -18 -3 -18 29 0 37
0 37 33 31 17 -4 91 -12 162 -17z m880 5 c58 -8 134 -44 174 -82 47 -46 65
-90 65 -167 1 -59 -3 -76 -26 -111 -47 -72 -119 -119 -227 -146 -93 -23 -179
-23 -256 0 -117 36 -180 94 -204 188 -10 44 -10 61 3 110 8 32 20 60 26 62 5
2 10 10 10 18 0 17 90 84 140 103 47 18 130 26 130 12 0 -5 -17 -15 -39 -21
-51 -13 -127 -81 -151 -136 -25 -55 -25 -127 0 -183 41 -88 115 -132 238 -139
47 -3 82 -1 82 5 0 5 17 17 39 26 73 33 131 118 131 195 0 103 -77 211 -165
233 -25 6 -48 15 -51 20 -3 5 -14 9 -25 9 -12 0 -17 4 -13 11 3 6 20 8 38 5
17 -3 54 -8 81 -12z m-521 -39 c5 -13 -1 -45 -9 -45 -1 0 -19 7 -38 15 -20 8
-58 15 -83 15 -60 0 -49 13 19 21 88 11 105 10 111 -6z m4741 -15 c3 -5 -3
-10 -15 -10 -12 0 -18 5 -15 10 3 6 10 10 15 10 5 0 12 -4 15 -10z m-70 -30
c-3 -5 -11 -10 -16 -10 -6 0 -7 5 -4 10 3 6 11 10 16 10 6 0 7 -4 4 -10z
m-5355 -328 c0 -10 -10 -28 -23 -40 -20 -19 -30 -21 -90 -15 -37 3 -75 11 -84
18 -13 10 -4 13 53 18 38 3 83 13 99 21 39 20 45 20 45 -2z m-1509 -31 l31
-19 -54 1 c-56 0 -83 17 -45 29 34 9 34 9 68 -11z m4583 -2 c-3 -5 -10 -7 -15
-3 -5 3 -7 10 -3 15 3 5 10 7 15 3 5 -3 7 -10 3 -15z m36 11 c0 -5 -4 -10 -10
-10 -5 0 -10 5 -10 10 0 6 5 10 10 10 6 0 10 -4 10 -10z m-4580 -90 c0 -5 -4
-10 -10 -10 -5 0 -10 5 -10 10 0 6 5 10 10 10 6 0 10 -4 10 -10z m-1026 -302
c19 -27 21 -78 3 -102 -12 -17 -17 -15 -67 28 -30 25 -59 46 -65 46 -18 0 -56
31 -50 41 4 5 42 9 85 9 70 0 81 -2 94 -22z m6153 -110 c-3 -7 -5 -2 -5 12 0
14 2 19 5 13 2 -7 2 -19 0 -25z m-5435 -78 c12 -11 36 -20 54 -20 17 0 37 -7
44 -15 7 -8 19 -15 27 -15 8 0 28 -13 46 -30 18 -16 46 -36 62 -44 17 -8 41
-26 54 -40 13 -14 36 -28 52 -31 16 -4 29 -13 29 -20 0 -23 -20 -28 -41 -9
-10 9 -19 14 -19 11 0 -4 -16 11 -36 33 -20 22 -44 40 -53 40 -9 0 -25 7 -35
15 -11 8 -28 15 -38 15 -10 0 -32 14 -48 30 -22 22 -39 30 -65 30 -22 0 -38 6
-41 15 -5 12 -24 15 -85 15 -45 0 -79 -4 -79 -10 0 -5 -12 -13 -27 -16 -16 -4
-42 -22 -60 -41 -17 -18 -35 -33 -40 -33 -5 0 -10 -12 -11 -27 -1 -16 -7 -29
-12 -31 -6 -2 -10 -10 -10 -18 0 -8 -4 -14 -10 -14 -11 0 -13 -81 -4 -117 4
-13 13 -23 20 -23 16 0 19 -26 4 -35 -5 -3 -10 -2 -10 3 0 6 -8 9 -17 8 -16
-1 -18 11 -21 104 l-3 105 59 58 c32 32 80 73 108 91 43 30 57 34 117 35 55 1
72 -3 89 -19z m5128 0 c14 -11 30 -20 36 -20 14 0 124 -111 124 -125 0 -5 7
-23 15 -39 16 -29 19 -133 5 -141 -10 -6 -20 46 -20 97 0 24 -5 41 -14 44 -8
3 -17 17 -21 31 -8 32 -81 103 -105 103 -10 0 -23 7 -30 15 -9 11 -32 15 -80
15 -48 0 -71 -4 -80 -15 -7 -8 -28 -15 -47 -15 -21 0 -36 -6 -39 -15 -4 -8
-16 -15 -28 -15 -12 0 -37 -13 -56 -28 -19 -16 -46 -32 -60 -35 -14 -3 -44
-24 -67 -47 -23 -22 -49 -40 -57 -40 -8 0 -18 -4 -21 -10 -3 -5 -14 -10 -23
-10 -16 1 -16 2 1 14 9 7 17 18 17 23 0 5 11 20 25 33 14 13 25 20 25 16 0
-13 59 24 70 44 6 11 18 20 28 21 9 0 31 9 47 20 17 10 39 23 50 29 11 6 43
23 70 39 44 26 60 30 130 30 65 0 85 -3 105 -19z m-4250 -185 c7 -8 27 -15 45
-15 37 0 50 -12 57 -53 5 -27 5 -27 -15 -10 -11 10 -29 26 -39 36 -37 36 -78
15 -78 -41 0 -18 -6 -40 -14 -47 -12 -12 -15 -11 -20 7 -3 12 -8 19 -12 15 -8
-8 -44 31 -44 47 0 15 36 46 54 46 7 0 19 7 26 15 7 8 16 15 20 15 4 0 13 -7
20 -15z m-906 -31 c3 -8 15 -14 27 -14 32 0 49 -29 47 -80 0 -27 -3 -35 -5
-20 -3 14 -8 27 -12 30 -4 3 -12 13 -18 24 -10 18 -11 18 -32 -3 -11 -11 -25
-21 -31 -21 -5 0 -10 -7 -10 -15 0 -18 1 -18 -39 -4 -28 10 -31 15 -29 46 1
21 9 38 18 41 8 3 23 14 34 23 20 19 41 16 50 -7z m4164 -2 c55 -58 56 -59 38
-87 -9 -14 -23 -25 -31 -25 -8 0 -15 -4 -15 -10 0 -14 -11 -12 -34 5 -16 12
-17 18 -8 27 16 16 15 60 0 80 -7 9 -26 19 -43 21 -18 2 -10 5 23 6 39 1 56
-4 70 -17z m886 10 c3 -5 -13 -9 -34 -10 -22 -1 -40 3 -40 8 0 12 67 13 74 2z
m-4609 -52 c16 -16 24 -30 17 -30 -12 0 -62 43 -62 54 0 14 18 4 45 -24z
m3572 -5 c-21 -20 -37 -44 -38 -53 0 -14 -2 -13 -8 3 -6 14 -3 24 11 33 10 7
16 18 13 23 -10 15 5 29 32 29 26 0 26 0 -10 -35z m547 -20 c-6 -16 -24 -21
-24 -7 0 11 11 22 21 22 5 0 6 -7 3 -15z m-4050 -28 c-1 -9 2 -14 7 -11 12 7
69 -37 62 -49 -3 -5 -10 -2 -15 7 -5 9 -17 16 -27 16 -22 0 -74 43 -64 53 12
13 38 2 37 -16z m1040 8 c3 -9 18 -15 35 -15 20 0 30 -6 34 -20 4 -17 2 -18
-14 -9 -11 5 -27 9 -37 8 -9 -1 -38 -1 -64 0 -44 1 -48 3 -48 26 0 23 4 25 44
25 30 0 46 -5 50 -15z m2974 -2 c-2 -10 -12 -19 -22 -21 -11 -2 -27 -14 -37
-26 -9 -11 -21 -17 -25 -13 -4 4 4 19 19 33 15 14 27 29 27 34 0 6 9 10 21 10
14 0 19 -5 17 -17z m-2303 -3 c3 -5 17 -10 31 -10 13 0 24 -6 24 -13 0 -20
-39 -18 -61 4 -11 11 -24 17 -29 14 -6 -4 -10 -1 -10 4 0 14 37 14 45 1z
m-775 -25 c0 -9 -11 -20 -24 -25 -13 -5 -25 -13 -27 -19 -2 -6 -10 -7 -17 -2
-10 6 -8 14 10 34 25 29 58 36 58 12z m1343 -21 c-17 -17 -31 -23 -45 -18 -20
6 -20 7 6 29 15 13 35 21 45 18 17 -4 16 -7 -6 -29z m139 5 c30 -28 30 -30 6
-15 -15 9 -34 16 -43 16 -8 0 -15 4 -15 9 0 5 -8 12 -17 14 -11 3 -8 5 9 6 18
1 39 -10 60 -30z m534 14 c12 -4 15 -3 10 6 -6 9 4 11 36 10 58 -2 75 -7 82
-24 4 -11 0 -12 -17 -6 -28 10 -110 2 -119 -12 -3 -6 -20 -12 -37 -13 -16 -1
-34 -5 -40 -8 -13 -8 -24 11 -15 25 4 8 9 7 15 -2 6 -11 9 -9 9 7 0 36 17 40
76 17z m-2428 -21 c-1 -17 -10 -35 -25 -46 -24 -18 -25 -18 -21 0 2 11 10 18
16 17 16 -4 15 14 0 20 -8 3 -6 6 5 6 9 1 17 8 17 16 0 8 2 15 4 15 3 0 4 -12
4 -28z m637 -13 c-8 -12 -35 -12 -35 0 0 11 22 20 33 14 4 -2 5 -9 2 -14z
m-1595 -19 c0 -10 -9 -24 -20 -30 -19 -10 -19 -10 -2 20 20 35 22 36 22 10z
m2000 3 c1 -40 51 -71 63 -40 4 9 8 8 16 -3 8 -11 7 -16 -3 -18 -8 -2 -11 -12
-8 -27 2 -15 0 -25 -7 -25 -6 0 -11 11 -11 25 0 19 -5 25 -23 25 -16 0 -27 10
-39 35 -8 19 -13 37 -10 40 11 11 22 4 22 -12z m210 7 c0 -5 6 -10 14 -10 13
0 31 -28 23 -36 -2 -2 -18 10 -36 26 -21 20 -27 30 -17 30 9 0 16 -4 16 -10z
m1340 0 c0 -5 -7 -7 -15 -4 -8 4 -15 8 -15 10 0 2 7 4 15 4 8 0 15 -4 15 -10z
m-880 -14 c0 -17 -24 -27 -45 -20 -12 5 -13 10 -4 20 15 18 49 18 49 0z m600
0 c0 -3 -4 -8 -10 -11 -5 -3 -10 -1 -10 4 0 6 5 11 10 11 6 0 10 -2 10 -4z
m674 -25 c-2 -3 -12 3 -22 13 -16 17 -16 18 5 5 12 -7 20 -15 17 -18z m-3044
4 c0 -9 -12 -18 -30 -21 -16 -4 -30 -10 -30 -15 0 -5 -8 -9 -17 -9 -15 0 -16
2 -3 10 8 5 11 10 5 11 -7 0 53 33 73 38 1 1 2 -6 2 -14z m760 -22 c0 -14 -2
-14 -20 2 -11 10 -20 22 -20 27 0 5 9 4 20 -2 11 -6 20 -18 20 -27z m1919 23
c9 -10 8 -16 -4 -26 -13 -11 -15 -8 -15 14 0 30 3 32 19 12z m751 9 c0 -8 -61
-37 -67 -32 -3 3 8 12 24 21 29 16 43 19 43 11z m-3050 -9 c0 -3 -4 -8 -10
-11 -5 -3 -10 -1 -10 4 0 6 5 11 10 11 6 0 10 -2 10 -4z m1955 -6 c3 -5 -3
-10 -15 -10 -12 0 -18 5 -15 10 3 6 10 10 15 10 5 0 12 -4 15 -10z m-966 -52
c-1 -51 -1 -52 -10 -18 -7 32 -4 70 7 70 2 0 4 -24 3 -52z m-1636 25 c-7 -3
-9 -11 -6 -20 4 -11 1 -14 -13 -11 -10 2 -18 10 -16 16 1 7 -4 12 -10 13 -7 0
-4 4 7 8 11 5 27 6 34 3 10 -4 11 -7 4 -9z m3377 -11 c-17 -6 -42 7 -35 18 4
6 13 5 26 -3 10 -6 15 -13 9 -15z m-1233 -34 c-3 -7 -5 -2 -5 12 0 14 2 19 5
13 2 -7 2 -19 0 -25z m1443 18 c0 -2 -9 -6 -20 -9 -11 -3 -20 -1 -20 4 0 5 9
9 20 9 11 0 20 -2 20 -4z m-1620 -16 c0 -5 -2 -10 -4 -10 -3 0 -8 5 -11 10 -3
6 -1 10 4 10 6 0 11 -4 11 -10z m590 -9 c0 -5 -10 -11 -22 -14 -22 -6 -22 -6
-4 8 23 17 26 18 26 6z m-53 -87 c-3 -3 -12 -4 -19 -1 -8 3 -5 6 6 6 11 1 17
-2 13 -5z"/>
<path d="M6656 14004 c-9 -23 2 -34 32 -34 36 0 56 14 49 34 -9 22 -73 22 -81
0z"/>
<path d="M6988 14006 c-22 -16 -23 -45 -3 -53 17 -6 55 23 55 42 0 7 -7 16
-16 19 -19 7 -15 8 -36 -8z"/>
<path d="M8568 11353 c6 -2 18 -2 25 0 6 3 1 5 -13 5 -14 0 -19 -2 -12 -5z"/>
<path d="M9018 2113 c7 -3 16 -2 19 1 4 3 -2 6 -13 5 -11 0 -14 -3 -6 -6z"/>
<path d="M8540 3250 c0 -5 5 -10 10 -10 6 0 10 5 10 10 0 6 -4 10 -10 10 -5 0
-10 -4 -10 -10z"/>
<path d="M4855 3220 c3 -5 10 -10 16 -10 5 0 9 5 9 10 0 6 -7 10 -16 10 -8 0
-12 -4 -9 -10z"/>
<path d="M12091 9524 c-60 -33 -65 -38 -93 -92 -20 -39 -24 -60 -22 -125 1
-76 2 -80 37 -114 41 -41 74 -40 63 1 -10 40 2 56 43 56 24 0 45 -7 59 -20 26
-24 27 -30 7 -56 -8 -10 -15 -26 -15 -35 0 -31 -55 -59 -117 -59 -51 0 -61 4
-90 32 -23 22 -36 29 -43 22 -8 -8 -6 -15 5 -24 8 -7 15 -26 15 -42 0 -16 9
-42 21 -56 17 -23 20 -38 18 -113 -4 -117 -1 -119 116 -119 81 0 98 -3 138
-26 54 -30 207 -182 207 -205 0 -9 6 -22 14 -29 8 -6 16 -21 18 -32 4 -30 23
-33 47 -9 18 18 21 33 21 105 0 62 4 87 15 96 22 18 22 475 0 504 -8 11 -15
41 -15 66 0 33 -6 54 -20 70 -11 13 -20 31 -20 41 0 10 -12 27 -26 38 -14 11
-29 33 -33 48 -4 16 -16 30 -27 32 -10 2 -36 19 -57 37 -37 34 -38 34 -130 33
-78 0 -99 -4 -136 -25z"/>
<path d="M5202 4449 c2 -6 8 -10 13 -10 5 0 11 4 13 10 2 6 -4 11 -13 11 -9 0
-15 -5 -13 -11z"/>
<path d="M3681 3456 c-18 -6 -55 -32 -82 -56 -85 -76 -97 -176 -35 -280 21
-37 81 -100 94 -100 4 0 13 -5 19 -11 19 -19 114 -49 153 -49 45 0 130 49 165
94 40 52 55 125 40 191 -22 93 -83 160 -183 201 -62 26 -119 29 -171 10z"/>
<path d="M8320 2781 c-64 -23 -101 -45 -131 -78 -53 -59 -63 -84 -63 -164 0
-67 4 -80 30 -119 16 -24 47 -57 69 -72 36 -25 48 -27 132 -28 107 0 134 11
204 81 33 33 52 63 64 101 16 52 16 58 0 104 -35 104 -82 151 -177 178 -66 19
-69 19 -128 -3z"/>
<path d="M7565 1130 c-3 -5 -1 -10 4 -10 6 0 11 5 11 10 0 6 -2 10 -4 10 -3 0
-8 -4 -11 -10z"/>
</g>
</svg>
